<?xml version="1.0" standalone="no"?>
<!DOCTYPE svg PUBLIC "-//W3C//DTD SVG 1.1//EN" "http://www.w3.org/Graphics/SVG/1.1/DTD/svg11.dtd" >
<svg>
<metadata>
Created by FontForge 20120731 at Wed Oct 29 09:31:03 2014
 By Orthosie Webhosting
Copyright \(c\)  M. Klein,, 2004. All rights reserved.
</metadata>
<defs>
<font id="MankSansRegular" horiz-adv-x="746" >
  <font-face 
    font-family="MankSansRegular"
    font-weight="400"
    font-stretch="normal"
    units-per-em="1000"
    panose-1="2 0 6 3 2 0 0 2 0 3"
    ascent="800"
    descent="-200"
    x-height="474"
    cap-height="706"
    bbox="-28 -265 984.091 967"
    underline-thickness="20"
    underline-position="-123"
    unicode-range="U+0005-E007"
  />
<missing-glyph horiz-adv-x="313" 
d="M263 325v23l-9 8h-196l-8 -8v-23l9 -8h196z" />
    <glyph glyph-name=".notdef" horiz-adv-x="313" 
d="M263 325v23l-9 8h-196l-8 -8v-23l9 -8h196z" />
    <glyph glyph-name=".null" horiz-adv-x="0" 
 />
    <glyph glyph-name="nonmarkingreturn" horiz-adv-x="333" 
 />
    <glyph glyph-name="breve" horiz-adv-x="443" 
d="M393 730q0 8 -8 8h-30l-8 -8q0 -29 -8 -54.5t-24 -44t-39.5 -29.5t-54.5 -11t-54.5 10.5t-39.5 29.5t-24 44t-8 55l-8 8q-3 0 -9.5 0.5t-12.5 0.5t-10.5 -2t-4.5 -7q0 -81 44.5 -129.5t126.5 -48.5q39 0 71 13t54.5 37t34.5 56.5t12 71.5z" />
    <glyph glyph-name="dotaccent" horiz-adv-x="247" 
d="M197 650q0 29 -22 51t-51 22q-15 0 -28 -6t-23.5 -16t-16.5 -23t-6 -28t6 -28t16.5 -23t23.5 -16t28 -6q29 0 51 22t22 51z" />
    <glyph glyph-name="ring" horiz-adv-x="319" 
d="M269 614q0 47 -31.5 77.5t-78.5 30.5q-46 0 -77.5 -30.5t-31.5 -77.5q0 -24 8 -44t23 -34.5t35 -23t44 -8.5q47 0 78 31t31 79zM227 614h-1q0 -31 -17.5 -51t-49.5 -20q-30 0 -48.5 21t-18.5 50t19 49.5t49 20.5t48.5 -20.5t18.5 -49.5z" />
    <glyph glyph-name="hungarumlaut" unicode="&#xa;" horiz-adv-x="393" 
d="M343 764q0 6 -8 6h-35l-7 -3q-3 -5 -15 -21.5t-27.5 -39t-33.5 -48t-32.5 -47t-24.5 -36.5t-10 -16q0 -8 9 -8h17l6 3q4 5 17.5 21.5t31 39.5t37.5 48t36.5 47t27.5 37t11 17zM243 764q0 6 -8 6h-35l-7 -3q-3 -5 -15 -21.5t-27.5 -39t-33.5 -48t-32.5 -47t-24.5 -36.5
t-10 -16q0 -8 9 -8h18l6 3q4 5 17 21.5t31 39.5t37.5 48t36 47t27.5 37t11 17z" />
    <glyph glyph-name="ogonek" horiz-adv-x="252" 
d="M202 -121q0 5 -7.5 8.5t-11.5 5.5l-10 -2q-14 -22 -40 -22q-19 0 -27.5 13.5t-8.5 30.5q0 9 5.5 21.5t13 25.5t16 24t14.5 19v-1l3 5l-13 6q-3 8 -14 8l-8 -4q-8 -11 -19 -25t-21 -29t-17 -31t-7 -29q0 -32 20.5 -54t53.5 -22q9 0 22.5 4t26 11t21 16.5t8.5 20.5z" />
    <glyph glyph-name="caron" horiz-adv-x="446" 
d="M396 734q0 3 -3 5t-6 2h-19l-6 -3q-35 -38 -70 -76.5t-70 -76.5l-141 153l-6 3h-15t-10 -7q0 -2 9 -14.5t23.5 -30.5t31 -39.5t32 -40.5t27 -33t14.5 -18l6 -3h59l6 3q3 4 14.5 18t26.5 33t32.5 40.5t31.5 39.5t23.5 30.5t9.5 14.5z" />
    <glyph glyph-name="dotlessi" unicode="&#xd;" horiz-adv-x="143" 
d="M93 8v458l-8 8h-27l-8 -8v-458l8 -8h27z" />
    <glyph glyph-name="fraction" horiz-adv-x="633" 
d="M583 692q0 8 -9 8h-33l-7 -3q-7 -10 -31 -44t-59.5 -84t-78 -110.5t-86.5 -122.5t-85 -120.5t-73 -104.5t-51.5 -74t-19.5 -29q0 -8 9 -8h34l7 3q7 10 31 44t59.5 84t78 110.5t86.5 122.5t85 120.5t72.5 104.5t51 74t19.5 29z" />
    <glyph glyph-name="fi" horiz-adv-x="484" 
d="M434 8v458l-8 8h-25l-8 -8v-458l8 -8h25zM422 669v26l-4 7q-29 14 -67 24t-70 10q-65 0 -97 -25.5t-44 -66t-11.5 -89.5t0.5 -97h-71l-8 -8v-22l8 -8h71v-412l8 -8h25l8 8v412h167l8 8v22l-8 8h-167v107q0 28 5.5 53t18 43t34 28.5t53.5 10.5q31 0 67 -10.5t62 -27.5z
" />
    <glyph glyph-name="fl" horiz-adv-x="499" 
d="M449 8v683l-6 7q-35 16 -79 27t-82 11q-65 0 -97 -25.5t-44 -65.5t-11.5 -89.5t0.5 -97.5h-72l-8 -8v-22l9 -8h71v-412l8 -8h25l8 8v412h167l8 8v22l-9 8h-167v107q0 28 5.5 53t18.5 43t35 28.5t54 10.5t63 -8.5t62 -19.5v-664l8 -8h25z" />
    <glyph glyph-name="Lslash" horiz-adv-x="220" 
d="M170 488q0 25 -17.5 42.5t-42.5 17.5t-42.5 -17.5t-17.5 -42.5t17.5 -42.5t42.5 -17.5t42.5 17.5t17.5 42.5zM158 466q0 -8 -5.5 -13.5t-13.5 -5.5t-13.5 5.5t-5.5 13.5t5.5 13.5t13.5 5.5t13.5 -5.5t5.5 -13.5z" />
    <glyph glyph-name="lslash" horiz-adv-x="505" 
d="M455 488q0 25 -17.5 42.5t-42.5 17.5t-42.5 -17.5t-17.5 -42.5t17.5 -42.5t42.5 -17.5t42.5 17.5t17.5 42.5zM185 488q0 25 -17.5 42.5t-42.5 17.5t-42.5 -17.5t-17.5 -42.5t17.5 -42.5t42.5 -17.5t42.5 17.5t17.5 42.5zM305 101v596l-9 8h-151l-8 -8v-23l9 -8l117 -1
v-569q0 -30 -5 -59.5t-18 -53.5t-36.5 -38.5t-59.5 -14.5q-15 0 -25.5 3.5t-20.5 8.5t-19 10.5t-21 9.5q-8 0 -8 -9l6 -35l4 -6q18 -10 41 -15t44 -5q47 0 78 17.5t49 46.5t25.5 66.5t7.5 78.5zM405 -127l-7 6h-23l-6 -6q0 -45 -25 -76.5t-73 -31.5q-49 0 -73.5 31t-24.5 77
l-6 6h-22l-7 -6q2 -63 34.5 -100.5t98.5 -37.5q63 0 97.5 38.5t36.5 99.5zM443 466q0 -8 -5.5 -13.5t-13.5 -5.5t-13.5 5.5t-5.5 13.5t5.5 13.5t13.5 5.5t13.5 -5.5t5.5 -13.5zM173 466q0 -8 -5.5 -13.5t-13.5 -5.5t-13.5 5.5t-5.5 13.5t5.5 13.5t13.5 5.5t13.5 -5.5
t5.5 -13.5z" />
    <glyph glyph-name="space" unicode=" " horiz-adv-x="263" 
 />
    <glyph glyph-name="exclam" unicode="!" horiz-adv-x="148" 
d="M96 100v598l-8 8h-29l-7 -8v-598l7 -8h29zM98 8v36l-6 7h-36l-6 -7v-36l6 -7h36z" />
    <glyph glyph-name="quotedbl" unicode="&#x22;" horiz-adv-x="227" 
d="M177 701q0 8 -9 8h-26l-7 -8v-165l8 -8h18l8 8zM91 701q2 8 -7 8h-26l-8 -8v-165l9 -8h18l8 8z" />
    <glyph glyph-name="numbersign" unicode="#" horiz-adv-x="555" 
d="M505 475v27l-8 7h-98l16 160q0 9 -8 9h-26l-8 -7l-14 -162h-141l14 160q0 9 -8 9h-26l-8 -7l-14 -162h-106l-8 -7v-27l8 -8h101q-3 -37 -5.5 -73.5t-6.5 -73.5h-101l-8 -8v-27l8 -7h96l-14 -165q1 -2 3 -5t5 -3h25l8 6l16 167h140l-15 -165q1 -2 3 -5t5 -3h26l8 6
q4 42 7 83.5t7 83.5h107l8 7v27l-8 8h-102q3 37 5.5 73.5t6.5 73.5h102zM354 467q-4 -37 -6.5 -73.5t-5.5 -73.5h-141q4 37 6.5 73.5t5.5 73.5h141z" />
    <glyph glyph-name="dollar" unicode="$" horiz-adv-x="478" 
d="M428 189q0 56 -24 89.5t-60.5 54.5t-78.5 35.5t-78.5 32t-60.5 44.5t-24 73q0 34 10 56.5t28.5 36t44.5 19t57 5.5q30 0 59.5 -4t58.5 -13q7 -2 14.5 -5.5t15.5 -5.5l5 -1q3 0 4.5 3t1.5 5v30l-6 8q-31 11 -65 16t-66 6l7 67q0 9 -8 9h-24l-8 -8q0 -17 1 -34t1 -34
q-38 0 -70 -9t-55 -27.5t-35.5 -48t-12.5 -71.5q0 -56 24 -89.5t60.5 -54.5t78.5 -35t78.5 -31.5t60.5 -44.5t24 -74q0 -35 -14 -58t-36.5 -36.5t-51 -19.5t-57.5 -6q-33 0 -66 5.5t-64 17.5q-8 3 -17.5 9t-17.5 8q-2 1 -6 1q-3 0 -4.5 -3t-1.5 -5v-37l5 -8q35 -13 74 -19.5
t76 -7.5l-5 -77q0 -8 8 -8q6 0 19 -0.5t13 8.5q0 20 -2 38.5t-3 38.5q39 0 74 8t61.5 27t42 49.5t15.5 74.5z" />
    <glyph glyph-name="percent" unicode="%" horiz-adv-x="589" 
d="M303 577q0 63 -30.5 98.5t-95.5 35.5t-96 -35.5t-31 -98.5q0 -60 32.5 -98.5t94.5 -38.5t94 39t32 98zM530 702q0 7 -8 7h-30l-6 -4q-6 -10 -27.5 -44.5t-53 -85t-69.5 -112t-76.5 -124t-75.5 -122t-65.5 -105.5t-45.5 -74.5t-17 -29.5q0 -8 8 -8h31l6 4q6 10 27.5 44.5
t53 85t69.5 112t76.5 124.5t75 122t65 105.5t45.5 75t17 29.5zM539 131q0 63 -30.5 99t-95.5 36q-66 0 -96.5 -36t-30.5 -99q0 -60 32.5 -98.5t94.5 -38.5t94 39t32 98zM263 577q0 -41 -21 -70.5t-65 -29.5t-65.5 29.5t-21.5 70.5q0 42 21 69.5t66 27.5t65.5 -27.5
t20.5 -69.5zM499 131q0 -40 -21 -70t-65 -30t-65.5 29.5t-21.5 70.5q0 42 21 70t66 28t65.5 -28t20.5 -70z" />
    <glyph glyph-name="ampersand" unicode="&#x26;" horiz-adv-x="627" 
d="M577 7q0 1 -13 17.5t-29 36.5t-30.5 38t-17.5 23q10 18 20 42t18.5 49.5t14 50t5.5 44.5q0 8 -6 11t-12 3q-7 0 -13 -3.5t-6 -11.5q0 -39 -12 -84t-32 -79q-54 68 -100 144t-91 150q24 12 50 26.5t48.5 33.5t37 43t14.5 55q0 52 -33 83.5t-84 31.5q-29 0 -54.5 -7.5
t-44.5 -23t-30 -38.5t-11 -54q0 -37 14.5 -70.5t32.5 -64.5q-35 -20 -64.5 -43.5t-51.5 -52.5t-34.5 -64t-12.5 -77q0 -105 58.5 -163.5t163.5 -58.5q56 0 106 24.5t85 68.5q17 -22 33.5 -44t35.5 -42l37 -1q8 0 8 7zM382 596q0 -23 -13.5 -42t-33.5 -34.5t-42.5 -27.5
t-40.5 -21q-16 25 -29.5 56t-13.5 61q0 42 29 64t68 22q33 0 54.5 -23t21.5 -55zM439 116q-29 -39 -73.5 -62t-93.5 -23q-42 0 -75 13.5t-56 38.5t-35 58.5t-12 74.5q0 33 11 64t30 57.5t44.5 47t54.5 34.5q48 -78 99.5 -154t105.5 -149z" />
    <glyph glyph-name="quotesingle" unicode="'" horiz-adv-x="143" 
d="M93 701q0 8 -9 8h-26l-8 -8v-165l9 -8h18l8 8z" />
    <glyph glyph-name="parenleft" unicode="(" horiz-adv-x="246" 
d="M196 9q0 2 -1 2v2q-6 20 -19 41t-21 41q-29 68 -44.5 139.5t-15.5 145.5q0 69 15.5 136.5t41.5 132.5q9 23 22.5 46t20.5 46v2q1 0 1 2q0 5 -9.5 11t-14.5 8l-11 -2q-27 -38 -47.5 -85.5t-35 -98t-21.5 -101.5t-7 -97t7 -98t21 -103.5t35 -100t48 -86.5l11 -2q5 2 14.5 8
t9.5 11z" />
    <glyph glyph-name="parenright" unicode=")" horiz-adv-x="246" 
d="M196 380q0 46 -7.5 97t-21.5 101.5t-35 98t-48 85.5l-11 2q-4 -2 -13.5 -8t-9.5 -11v-4q8 -23 21.5 -46.5t22.5 -45.5q26 -65 41.5 -132.5t15.5 -136.5q0 -74 -16 -145.5t-44 -139.5q-8 -20 -21.5 -41t-19.5 -41v-4q0 -5 9.5 -11t14.5 -8l11 2q27 38 47.5 86.5t35 100
t21.5 103.5t7 98z" />
    <glyph glyph-name="asterisk" unicode="*" horiz-adv-x="454" 
d="M404 655l-19 32l-6 2q-37 -20 -68.5 -41.5t-65.5 -45.5q2 23 6.5 49.5t4.5 49.5v58l-5 4h-36l-5 -4v-58q0 -25 2.5 -50.5t4.5 -50.5q-33 24 -68 47.5t-72 41.5l-6 -1l-20 -33l2 -6q38 -21 76.5 -38.5t78.5 -33.5q-39 -14 -79.5 -30.5t-75.5 -38.5l-3 -5l22 -37l6 -2
q37 21 70.5 43t68.5 46q-2 -25 -5 -50.5t-3 -49.5l1 -71l5 -5h36l5 5v71q0 24 -4.5 49.5t-6.5 49.5q30 -24 63.5 -47t68.5 -40l6 2l20 33l-2 5q-36 22 -72.5 38.5t-74.5 33.5q38 17 75 34.5t73 37.5z" />
    <glyph glyph-name="plus" unicode="+" horiz-adv-x="408" 
d="M358 362v23l-7 8l-128 -1l1 128l-8 8h-24l-8 -8l1 -128l-128 1l-7 -8v-23l7 -8l128 1l-1 -128l8 -8h24l8 8l-1 128l128 -1z" />
    <glyph glyph-name="comma" unicode="," horiz-adv-x="199" 
d="M149 104q0 6 -8 6h-35l-8 -5l-5 -15l-9.5 -28.5t-11 -35t-10.5 -34t-8.5 -26t-3.5 -11.5q0 -8 9 -8h18l6 5q2 5 12.5 29t22.5 50.5t21.5 48.5t9.5 24z" />
    <glyph glyph-name="hyphen" unicode="-" horiz-adv-x="313" 
d="M263 313v23l-9 8h-196l-8 -8v-23l9 -8h196z" />
    <glyph glyph-name="period" unicode="." horiz-adv-x="163" 
d="M113 2v48l-9 8h-46l-8 -8v-48l9 -8h46z" />
    <glyph glyph-name="slash" unicode="/" horiz-adv-x="399" 
d="M349 698q0 8 -9 8h-29l-7 -5q-3 -9 -15.5 -43.5t-31 -84.5t-41 -111t-45.5 -124t-45 -122t-39 -105t-27 -74t-10 -29q0 -8 9 -8h30l7 5q3 9 15.5 43.5t31 85t41 111.5t45.5 123.5t44.5 121.5t38.5 105t27 74t10 29z" />
    <glyph glyph-name="zero" unicode="0" horiz-adv-x="619" 
d="M569 355q0 39 -6.5 80.5t-19.5 81t-34 75t-50 62t-66.5 42t-83.5 15.5t-83.5 -15.5t-66 -42t-49.5 -62t-34 -75t-19.5 -81t-6.5 -80.5q0 -60 14 -123.5t44.5 -116.5t80 -87t121.5 -34q69 0 118.5 34.5t80.5 88t45.5 117t14.5 121.5zM525 355h-1q0 -48 -11 -105
t-36 -105.5t-66.5 -81t-101.5 -32.5t-101 32.5t-66.5 81t-36.5 105.5t-11 105q0 47 12 103t37.5 104t66.5 80t100 32q58 0 99 -32t66.5 -80t37.5 -104t12 -103z" />
    <glyph glyph-name="one" unicode="1" horiz-adv-x="395" 
d="M345 7v23l-8 8h-85v663l-8 8h-29l-159 -68l-5 -7q0 -2 -0.5 -6.5t0 -9.5t1.5 -9t4 -4q4 0 25.5 9t47 20t48.5 21.5t30 13.5v-631h-86l-8 -8v-23l8 -8h216z" />
    <glyph glyph-name="two" unicode="2" horiz-adv-x="493" 
d="M443 8v146l-8 8h-23l-8 -9v-111q-34 -2 -68 -3.5t-68 -1.5q-41 0 -81 0.5t-81 0.5q24 30 56.5 67t68 78.5t70.5 85.5t62.5 88.5t44.5 87.5t17 82q0 51 -12.5 86t-37 56.5t-61 30.5t-84.5 9q-36 0 -73 -6.5t-72 -15.5l-6 -8q0 -2 -0.5 -8t0 -12.5t1.5 -11.5t4 -5
q7 0 22.5 4.5t35.5 9.5t42.5 9.5t44.5 4.5q72 0 112.5 -33t40.5 -110q0 -35 -18 -77.5t-47.5 -88t-66 -91.5t-73.5 -88t-70.5 -79t-56.5 -63v-32l8 -8h354h23z" />
    <glyph glyph-name="three" unicode="3" horiz-adv-x="473" 
d="M423 189q0 37 -13.5 67t-36 52.5t-52.5 38.5t-63 25q24 8 49 25t46 40t34.5 49t13.5 52q0 44 -13.5 76.5t-38.5 54t-59 32t-76 10.5q-33 0 -68 -5.5t-67 -15.5l-6 -8q0 -3 -0.5 -10t0 -14.5t2 -13t4.5 -5.5q2 0 15 5.5t32.5 11.5t42.5 11.5t46 5.5q31 0 57 -9t45.5 -26.5
t30.5 -42.5t11 -57q0 -34 -18 -62t-46 -47.5t-61 -30.5t-64 -11l-8 -8v-23l9 -8q36 0 73 -9.5t67 -29t49 -49.5t19 -71q0 -38 -14.5 -67t-39 -49t-57 -30.5t-67.5 -10.5q-21 0 -45 5.5t-45 11.5t-36 11.5t-18 5.5t-5 -3t-2 -5v-36l7 -8q35 -9 71.5 -14.5t73.5 -5.5
q44 0 84 12.5t70.5 37t48.5 61t18 84.5z" />
    <glyph glyph-name="four" unicode="4" horiz-adv-x="587" 
d="M537 231v23l-9 8h-109v441l-8 8h-29l-6 -3l-326 -454v-23l9 -8h318v-215l7 -8h28l8 8v215h109zM377 641l-1 -379h-270q68 96 135.5 189.5t135.5 189.5z" />
    <glyph glyph-name="five" unicode="5" horiz-adv-x="461" 
d="M411 197q0 106 -53 159.5t-160 53.5q-40 0 -80 -3q2 65 5.5 129.5t5.5 129.5q38 1 76 1.5t77 0.5q25 0 49.5 -0.5t49.5 -1.5q7 2 7 8q0 8 0.5 20t-9.5 15q-71 -5 -142 -4.5t-143 -0.5l-8 -8l-13 -325q0 -8 9 -8q29 0 58 4.5t59 4.5q83 0 125.5 -47t42.5 -128
q0 -40 -14.5 -71t-39 -52t-58 -32t-71.5 -11q-20 0 -41 5t-38.5 10.5t-30.5 10.5t-17 5q-3 0 -5 -3t-2 -5v-34l7 -8q30 -8 63 -13t65 -5q46 0 87 13.5t72 39t49 63.5t18 87z" />
    <glyph glyph-name="six" unicode="6" horiz-adv-x="547" 
d="M497 219q0 211 -206 211q-53 0 -103.5 -23.5t-89.5 -58.5q6 56 29.5 113t61.5 103t89.5 75t114.5 29q8 0 16 -0.5t16 -1.5q2 1 5 3t3 5v26l-7 8l-33 1q-35 1 -68.5 -9.5t-63.5 -25.5q-56 -29 -96 -71t-65.5 -93t-37.5 -109t-12 -119q0 -52 12 -103.5t38.5 -92.5
t68.5 -66.5t102 -25.5q105 0 165.5 59.5t60.5 165.5zM453 219q0 -41 -12.5 -75.5t-36.5 -59.5t-57.5 -39t-75.5 -14q-46 0 -79.5 25t-55 62.5t-32 81.5t-10.5 82v11q4 1 10 7q37 38 84.5 64t102.5 26q83 0 122.5 -45t39.5 -126z" />
    <glyph glyph-name="seven" unicode="7" horiz-adv-x="489" 
d="M439 671v27l-8 8q-186 -2 -372 0l-6 -3l-3 -6v-116l8 -8h23l8 9v83q77 4 153 4h154q-4 -10 -17 -43t-32 -81t-41.5 -106t-46 -117.5t-45.5 -115.5t-38.5 -100t-27 -71t-10.5 -29q0 -3 3 -4.5t5 -1.5h28l6 5z" />
    <glyph glyph-name="eight" unicode="8" horiz-adv-x="549" 
d="M499 194q0 63 -29 113.5t-93 69.5q21 12 39 30.5t31.5 40.5t21.5 46.5t8 48.5q0 47 -16 79t-44 52t-64.5 28.5t-78.5 8.5q-41 0 -78 -8.5t-64.5 -28.5t-43.5 -52t-16 -79q0 -57 25.5 -100.5t79.5 -64.5q-27 -12 -50 -31t-40 -43.5t-27 -52.5t-10 -57q0 -51 17.5 -89
t47.5 -62.5t71 -36.5t89 -12q47 0 88 12t71 36.5t47.5 62.5t17.5 89zM433 543h-1q0 -75 -34.5 -111t-112.5 -36q-36 0 -67 8.5t-53.5 26.5t-35.5 45.5t-13 66.5q0 36 12.5 61t34 40.5t50.5 22.5t62 7t62 -7t50 -22.5t33.5 -40.5t12.5 -61zM455 194q0 -41 -13.5 -71.5
t-37.5 -50.5t-57.5 -30t-72.5 -10t-72 10t-57 30t-37.5 50.5t-13.5 71.5q0 40 13.5 70.5t37 51.5t56 32t71.5 11q37 0 70.5 -11t58.5 -32t39.5 -51.5t14.5 -70.5z" />
    <glyph glyph-name="nine" unicode="9" horiz-adv-x="547" 
d="M497 454q0 57 -13.5 104t-41 81t-71 53t-103.5 19q-49 0 -89 -16t-68.5 -45t-44.5 -69.5t-16 -88.5q0 -45 12 -85.5t36.5 -70.5t61 -47.5t85.5 -17.5q54 0 106.5 21t96.5 53q-5 -50 -18.5 -105.5t-39.5 -102t-68 -77.5t-103 -31q-23 0 -45 6.5t-42 6.5q-10 0 -10 -8v-28
l6 -8q23 -6 45.5 -8t45.5 -2q59 0 102.5 22t74 59t50.5 84.5t31 99.5t15.5 104t4.5 97zM453 454v-29q0 -14 -1 -28l-5 -2q-11 -5 -20 -14t-20 -16q-36 -23 -77 -38.5t-85 -15.5q-39 0 -67 15t-47 40.5t-28 58t-9 67.5q0 38 12.5 71t35.5 58t55 39t71 14q51 0 86 -17t57 -47
t32 -70t10 -86z" />
    <glyph glyph-name="colon" unicode=":" horiz-adv-x="163" 
d="M113 314v48l-9 8h-46l-8 -8v-48l9 -8h46zM113 2v53l-9 8h-46l-8 -8v-53l9 -8h46z" />
    <glyph glyph-name="semicolon" unicode=";" horiz-adv-x="206" 
d="M156 314v48l-9 8h-47l-8 -8v-48l9 -8h47zM149 104q0 6 -8 6h-35l-8 -5l-5 -15l-9.5 -28.5t-11 -35t-10.5 -34t-8.5 -26t-3.5 -11.5q0 -8 9 -8h18l6 5q2 5 12.5 29t22.5 50.5t21.5 48.5t9.5 24z" />
    <glyph glyph-name="less" unicode="&#x3c;" horiz-adv-x="421" 
d="M371 213q0 5 -4 8q-27 19 -61 39t-69 39.5t-70 38t-65 35.5q7 4 29.5 17t52.5 30t63 36t60.5 35.5t45.5 28t18 13.5q0 3 -5.5 11.5t-7.5 11.5q-3 3 -6 3t-24 -11.5t-52 -29.5t-67 -39.5t-68.5 -40.5t-56.5 -33.5t-30 -18.5l-4 -7v-10l4 -7q6 -4 30 -18.5t56.5 -34
t68 -40.5t66.5 -39t52 -30t24 -12q2 0 5.5 3.5t6.5 7.5t5.5 8t2.5 6z" />
    <glyph glyph-name="equal" unicode="=" horiz-adv-x="408" 
d="M358 442v24l-7 8h-294l-7 -8v-24l7 -8h294zM358 281v24l-7 8h-294l-7 -8v-24l7 -8h294z" />
    <glyph glyph-name="greater" unicode="&#x3e;" horiz-adv-x="421" 
d="M371 369v10l-4 7q-7 4 -30.5 18.5t-56 33.5t-68.5 40.5t-67 39.5t-52.5 29.5t-23.5 11.5q-3 0 -6 -3q-2 -3 -7.5 -11.5t-5.5 -11.5t4 -7q63 -42 131 -78.5t134 -74.5q-7 -4 -30 -16.5t-53 -29.5t-62.5 -36t-60 -35.5t-45.5 -28t-18 -13.5t2.5 -6t5.5 -8.5t6.5 -8
t5.5 -3.5t23.5 12t52 30t66.5 39t68.5 40.5t56 34t30.5 18.5z" />
    <glyph glyph-name="question" unicode="?" horiz-adv-x="461" 
d="M411 492q0 48 -13.5 88.5t-40 69.5t-65 45t-88.5 16q-17 0 -36.5 -2t-40 -5.5t-39 -10t-33.5 -15.5l-4 -7q0 -3 -0.5 -9.5t0 -13t2 -12t5.5 -5.5q2 0 16 6.5t34.5 15t45.5 15t50 6.5q40 0 70.5 -14t51 -39t31 -58t10.5 -71q0 -42 -22.5 -79t-56.5 -67t-74 -53t-75 -36
l-5 -7v-150l8 -8q3 0 10 -0.5t13 -0.5q7 0 12 2t5 7q0 32 -1.5 64.5t-3.5 64.5q36 17 77 44t76 61.5t58 74.5t23 83zM180 8v36l-6 7h-36l-6 -7v-36l6 -7h36z" />
    <glyph glyph-name="at" unicode="@" horiz-adv-x="595" 
d="M545 -3v328q0 43 -19 73t-49.5 48t-68.5 26t-75 8q-68 0 -120.5 -21.5t-88.5 -61t-55 -94.5t-19 -122q0 -71 20.5 -127t59 -95.5t94 -60.5t126.5 -21l5 7q0 2 0.5 8.5t-0.5 13t-3 11.5t-6 3q-60 0 -107 18.5t-79.5 52.5t-49.5 82t-17 108q0 56 15.5 104t46.5 82.5
t75.5 54t103.5 19.5q27 0 57 -6t55.5 -19.5t42 -35.5t16.5 -55v-26q-23 5 -47 8.5t-48 3.5q-41 0 -80.5 -7t-71.5 -25.5t-51.5 -50t-19.5 -79.5q0 -67 38 -110t107 -43q52 0 98 21.5t77 65.5l2 -86l8 -8h21zM505 256h-1q0 -45 -7 -85t-26 -70t-53 -47.5t-87 -17.5
q-50 0 -75.5 32.5t-25.5 80.5q0 38 16.5 62.5t42.5 38.5t58 19t64 5q24 0 47.5 -5t46.5 -13z" />
    <glyph glyph-name="A" unicode="A" horiz-adv-x="649" 
d="M599 6q0 3 -8.5 27.5t-21.5 61t-28.5 79t-29.5 81t-24.5 68.5t-14.5 40l-118 338l-8 5h-38l-7 -5q-12 -34 -35 -98t-51 -141t-57 -158t-53 -147t-39.5 -108t-15.5 -43q0 -3 3.5 -4.5t5.5 -1.5h28l8 5q25 69 49 136.5t49 136.5h264l98 -273l8 -5q2 0 8 -0.5t12 0t11 2
t5 4.5zM445 317h-239l122 335z" />
    <glyph glyph-name="B" unicode="B" horiz-adv-x="453" 
d="M403 178q0 29 -6.5 57t-20.5 52t-35.5 42.5t-51.5 27.5q25 10 45 27.5t33 40t20 48t7 51.5q0 102 -52.5 143.5t-150.5 41.5q-66 0 -133 -3l-8 -8v-690l9 -8q33 0 66 -3t67 -3q46 0 84.5 10t66.5 32.5t44 57t16 84.5zM352 524h-1q0 -73 -41 -112t-113 -39h-105v297l50 2
t50 1q74 0 117 -35.5t43 -113.5zM361 178q0 -41 -12 -69.5t-34.5 -46t-53.5 -25t-70 -7.5q-25 0 -49.5 1.5t-49.5 3.5v301q26 0 53 0.5t53 0.5q75 0 119 -41.5t44 -117.5z" />
    <glyph glyph-name="C" unicode="C" horiz-adv-x="667" 
d="M616 44q0 2 0.5 7.5t0 11.5t-2 10.5t-4.5 4.5t-5 -1q-55 -17 -106.5 -31.5t-110.5 -14.5q-74 0 -129.5 25t-92 69.5t-54.5 104.5t-18 130q0 74 17 132.5t52.5 99t91 61.5t133.5 21q55 0 102 -10.5t98 -28.5q2 -1 3 -0.5t3 0.5q6 0 6 7v31l-5 6q-50 20 -102 26t-105 6
q-176 0 -257 -90.5t-81 -260.5q0 -82 20.5 -149.5t62.5 -115.5t105.5 -74.5t149.5 -26.5q24 0 53.5 3t60 8.5t59 13.5t50.5 18z" />
    <glyph glyph-name="D" unicode="D" horiz-adv-x="674" 
d="M624 360q0 93 -24 159.5t-71.5 108.5t-117 61.5t-160.5 19.5q-49 0 -97 -1.5t-97 -1.5l-7 -8v-688l7 -8q53 -2 104.5 -5t104.5 -3q87 0 154 25t112 72.5t68.5 115t23.5 153.5zM580 360q0 -74 -20.5 -134.5t-60 -103.5t-98.5 -66.5t-135 -23.5q-44 0 -87 1.5t-86 6.5v624
q40 4 79 5t79 1q161 0 245 -72.5t84 -237.5z" />
    <glyph glyph-name="E" unicode="E" horiz-adv-x="434" 
d="M383 5q0 4 0.5 10.5t0 13t-2.5 11t-7 4.5q-34 0 -68 -2.5t-68 -2.5h-69q-19 0 -38 0.5t-38 0.5v307h145q4 0 19 -1t31 -1q17 0 30.5 1.5t13.5 7.5v27l-8 8l-231 -3v281h145q32 0 62.5 -2t62.5 -2q8 0 8 8v27l-7 8h-306l-8 -8q1 -345 0 -690l8 -8q80 0 158.5 -0.5
t158.5 -2.5z" />
    <glyph glyph-name="F" unicode="F" horiz-adv-x="407" 
d="M357 672v26l-7 8h-293l-7 -8v-690l7 -8h27l8 8v332l153 2q3 0 16 -1.5t27.5 -2.5t26 0.5t11.5 6.5q0 3 0.5 9t0.5 11q0 6 -2 10.5t-7 4.5h-226v285l132 1h31h47q24 0 48 -2z" />
    <glyph glyph-name="G" unicode="G" horiz-adv-x="665" 
d="M615 43v305l-9 8h-196l-8 -8v-23l9 -8h162v-251q-45 -15 -91 -25t-94 -10q-75 0 -130 25t-91.5 69.5t-54.5 104.5t-18 130q0 74 17 132t53 98.5t92 62t133 21.5q56 0 102 -10.5t99 -28.5q2 -1 2.5 -0.5t2.5 0.5q6 0 6 7v31l-6 6q-50 20 -101.5 26t-105.5 6
q-175 0 -256.5 -91t-81.5 -260q0 -82 20.5 -149.5t62.5 -115.5t106 -74.5t150 -26.5q23 0 52.5 3t59.5 8.5t58.5 13t50.5 17.5z" />
    <glyph glyph-name="H" unicode="H" horiz-adv-x="647" 
d="M597 8v690l-9 8h-26l-8 -8v-302h-462v302l-8 8h-26l-8 -8v-690l9 -8h26l8 8v349h462v-349l8 -8h26z" />
    <glyph glyph-name="I" unicode="I" horiz-adv-x="312" 
d="M262 7v23l-8 8h-76v660l-8 8h-27l-8 -8v-660h-77l-8 -8v-23l8 -8h196z" />
    <glyph glyph-name="J" unicode="J" horiz-adv-x="355" 
d="M305 101v596l-9 8h-151l-8 -8v-23l9 -8l117 -1v-569q0 -30 -5 -59.5t-18 -53.5t-36.5 -38.5t-59.5 -14.5q-15 0 -25.5 3.5t-20.5 8.5t-19 10.5t-21 9.5q-8 0 -8 -9l6 -35l4 -6q18 -10 41 -15t44 -5q47 0 78 17.5t49 46.5t25.5 66.5t7.5 78.5z" />
    <glyph glyph-name="K" unicode="K" horiz-adv-x="471" 
d="M421 7q0 1 -20 25.5t-50.5 61t-67 79.5t-69.5 82t-58 68t-32 38q5 7 27 34.5t52 64.5t63 78.5t61 76.5t46.5 59t18.5 25q0 7 -8 7h-35l-5 -3l-250 -319v314l-9 8h-27l-8 -8v-690l9 -8h27l8 8v324l279 -329l6 -3q4 0 10.5 -0.5t12.5 -0.5q7 0 12 1.5t7 6.5z" />
    <glyph glyph-name="L" unicode="L" horiz-adv-x="422" 
d="M371 8q0 3 0.5 9t0.5 11q0 6 -2 10.5t-7 4.5q-31 0 -61.5 -2t-61.5 -2h-147v659l-8 8h-28l-7 -8v-690l7 -8h306z" />
    <glyph glyph-name="M" unicode="M" horiz-adv-x="819" 
d="M769 8v690l-9 8h-31l-7 -4l-321 -647l-305 646l-7 5h-31l-8 -8v-690l9 -8h26l8 8q-1 152 -1.5 303.5t-0.5 303.5q69 -155 143.5 -306.5t149.5 -304.5l6 -4h21l7 4q78 155 155.5 308.5t155.5 308.5l-3 -613l9 -8h26z" />
    <glyph glyph-name="N" unicode="N" horiz-adv-x="638" 
d="M581 8v690l-9 8h-28l-8 -8l4 -627q-112 161 -226 317.5t-229 314.5l-6 3h-28l-8 -8v-690l9 -8h26l8 8q-1 158 -1.5 313t-0.5 313q113 -160 227.5 -316.5t229.5 -314.5l6 -3h26z" />
    <glyph glyph-name="O" unicode="O" 
d="M696 360q0 80 -19 145t-58.5 110.5t-100.5 70.5t-145 25t-145 -25t-100.5 -70.5t-58.5 -110.5t-19 -145q0 -78 19.5 -144.5t60 -116t101 -77.5t143.5 -28q81 0 141 29t100.5 78.5t60.5 116t20 142.5zM652 360h-1q0 -65 -16.5 -124.5t-51 -105t-86.5 -72.5t-124 -27
q-71 0 -123.5 27t-87 72.5t-51.5 105t-17 124.5q0 69 16 126.5t49.5 99.5t86.5 65t128 23q74 0 127 -23t86.5 -65t49 -99.5t15.5 -126.5z" />
    <glyph glyph-name="P" unicode="P" horiz-adv-x="430" 
d="M380 521q0 52 -14 87.5t-40.5 58t-65 32.5t-87.5 10q-57 0 -115 -3l-8 -8v-690l9 -8h27l8 8v309q34 -7 74 -7q47 0 86 15t67 43t43.5 66.5t15.5 86.5zM337 521h-1q0 -80 -44 -127.5t-125 -47.5q-17 0 -36.5 0.5t-37.5 3.5v319q20 1 40.5 1.5t40.5 0.5q76 0 119.5 -34
t43.5 -116z" />
    <glyph glyph-name="Q" unicode="Q" 
d="M696 360q0 80 -19 145t-58.5 110.5t-100.5 70.5t-145 25t-145 -25t-100.5 -70.5t-58.5 -110.5t-19 -145q0 -74 18 -138.5t55 -113.5t94 -79t136 -34q-2 -4 -2 -5q2 -81 44.5 -129.5t127.5 -48.5q39 0 71 13t54.5 37t34.5 56.5t12 71.5q0 8 -9 8h-30l-8 -8q0 -29 -8 -54.5
t-24 -44t-39.5 -29.5t-54.5 -11t-54.5 10.5t-39.5 29.5t-24 44t-8 55l-1 5q77 4 133.5 35t94 80t55.5 113.5t18 136.5zM652 360h-1q0 -65 -16.5 -124.5t-51 -105t-86.5 -72.5t-124 -27q-71 0 -123.5 27t-87 72.5t-51.5 105t-17 124.5q0 69 16 126.5t49.5 99.5t86.5 65
t128 23q74 0 127 -23t86.5 -65t49 -99.5t15.5 -126.5z" />
    <glyph glyph-name="R" unicode="R" horiz-adv-x="509" 
d="M459 7q0 4 -2 6q-14 31 -29.5 60.5t-29.5 61.5q-9 22 -22 52.5t-29 60.5t-35 56t-40 38q60 22 92 71.5t32 112.5q0 50 -14 85t-40 56.5t-63.5 31.5t-84.5 10q-68 0 -137 -3l-7 -8v-690l8 -8h28l8 8v318h113q22 0 43.5 -19t41 -49t37.5 -66.5t33 -72t27 -66.5t20 -48l7 -5
q3 0 10 -0.5t14.5 0t13 2t5.5 5.5zM354 526h-1q0 -34 -11 -63.5t-31 -51.5t-48 -34.5t-63 -12.5h-107v305q26 1 51 1.5t51 0.5q73 0 116 -33.5t43 -111.5z" />
    <glyph glyph-name="S" unicode="S" horiz-adv-x="483" 
d="M433 166q0 61 -25 98.5t-62.5 62.5t-81 43t-81 40.5t-62.5 54.5t-25 84q0 33 12 56.5t32 39t47.5 22.5t57.5 7q29 0 46.5 -2.5t32 -6.5t29.5 -10t38 -12q1 -1 5 -1q3 0 4.5 3t1.5 5v32l-7 8q-35 12 -74.5 16.5t-76.5 4.5q-39 0 -73.5 -9.5t-60.5 -30t-41 -51.5t-15 -73
q0 -60 25 -97t62.5 -62t81 -43.5t81 -41.5t62.5 -55t25 -85q0 -35 -14.5 -60t-38 -41t-53.5 -23.5t-61 -7.5q-69 0 -133 26q-7 3 -14.5 7t-14.5 6q-2 1 -5 1q-7 0 -7 -7v-38l7 -7q39 -14 82.5 -19.5t85.5 -5.5q41 0 78.5 9.5t66.5 30.5t46 53.5t17 78.5z" />
    <glyph glyph-name="T" unicode="T" horiz-adv-x="556" 
d="M506 670v28l-8 8h-439l-8 -8q0 -3 -0.5 -9t0 -12t2.5 -10.5t7 -4.5q30 0 59.5 2.5t59.5 2.5h78v-659l8 -8h27l8 8v659h84q29 0 56.5 -1.5t56.5 -3.5z" />
    <glyph glyph-name="U" unicode="U" horiz-adv-x="624" 
d="M574 676v22l-8 8h-28l-8 -8v-22q0 -106 -0.5 -212t-9.5 -212q-4 -47 -18 -87t-39.5 -69.5t-62.5 -46.5t-88 -17q-56 0 -93.5 15.5t-61.5 44t-36.5 69.5t-16.5 92q-10 111 -10 222v223l-8 8h-28l-8 -8v-28q0 -105 1.5 -209.5t9.5 -209.5q5 -62 20 -109.5t44.5 -80.5
t75 -50t111.5 -17q61 0 106 19t76 53t48 81.5t21 104.5q8 106 9.5 212t1.5 212z" />
    <glyph glyph-name="V" unicode="V" horiz-adv-x="675" 
d="M625 700q0 6 -7 6h-30l-7 -5l-262 -639l-224 639l-8 5q-2 0 -8 0.5t-12.5 0t-11.5 -2t-5 -4.5t8 -27t20.5 -58.5t27.5 -75.5t28.5 -78.5t23.5 -65.5t14 -38l125 -352l8 -5h26l7 5q5 12 20 47.5t36 86t46.5 111.5t51 122.5t49.5 120t42.5 104t30 73.5t11.5 30z" />
    <glyph glyph-name="W" unicode="W" horiz-adv-x="933" 
d="M882 696q1 3 -1.5 6.5t-6.5 3.5h-29l-7 -6q-33 -156 -66 -310.5t-65 -310.5l-218 617l-7 5h-28l-8 -5q-54 -155 -108.5 -308.5t-109.5 -308.5l-134 621l-7 6q-4 0 -10 0.5t-12 0.5t-10.5 -2.5t-4.5 -8.5q0 -20 8 -47.5t13 -48.5l53 -242l77 -352l8 -6h28l8 5
q54 158 110 315t110 315l222 -630l8 -5h28l8 6q37 174 75 345t76 345z" />
    <glyph glyph-name="X" unicode="X" horiz-adv-x="626" 
d="M576 6q0 2 -15.5 27.5t-39.5 63.5t-52.5 82.5t-54.5 85t-45.5 70.5t-25.5 39q4 7 22 33t42 62t51 75.5t49.5 73.5t37.5 57t15 25q0 3 -3 4.5t-5 1.5h-34l-7 -4l-190 -290l-180 290l-7 4q-2 0 -8.5 0.5t-13.5 0t-12 -2t-5 -4.5q0 -2 13.5 -24.5t34 -56t45 -73.5t46.5 -76
t39 -63t22 -35q-5 -8 -25 -37t-47.5 -69t-57.5 -85t-55.5 -83t-42.5 -64t-17 -28q0 -3 3.5 -4.5t5.5 -1.5h31l7 4l221 332l210 -332l7 -4q3 0 9.5 -0.5t13.5 -0.5t12.5 1.5t5.5 5.5z" />
    <glyph glyph-name="Y" unicode="Y" horiz-adv-x="511" 
d="M461 701q0 2 -3 3.5t-5 1.5h-26l-7 -5q-42 -90 -83 -178.5t-83 -178.5l-160 357l-7 5q-2 0 -8 0.5t-12.5 0t-11.5 -1.5t-5 -4t12 -31t30.5 -69t41 -89.5t42.5 -92.5l35 -77t20 -43v-291l7 -8h29l8 8v293q4 8 19.5 40.5t36 76t43.5 92t42.5 90.5t32 70t12.5 31z" />
    <glyph glyph-name="Z" unicode="Z" horiz-adv-x="584" 
d="M533 5q0 3 0.5 9t0 12t-2 10.5t-5.5 4.5q-44 0 -87.5 -2t-87.5 -2h-250l426 639v22l-8 8h-450l-8 -8q0 -3 -0.5 -9t-0.5 -12q0 -5 2 -9.5t7 -4.5q203 0 406 6l-425 -637v-24l7 -8h234q117 0 235 -3z" />
    <glyph glyph-name="bracketleft" unicode="[" horiz-adv-x="228" 
d="M177 -9v22l-8 8q-18 3 -36.5 2t-37.5 2v684l75 4l7 8q0 2 0.5 7t0 10t-2.5 9t-6 4q-28 0 -55.5 -0.5t-56.5 -0.5l-7 -8v-750l8 -8h111q2 0 4 2.5t4 4.5z" />
    <glyph glyph-name="backslash" unicode="\" horiz-adv-x="400" 
d="M350 8q0 1 -10 29t-27 74t-38.5 105t-44.5 122t-45.5 124t-41 111t-31.5 84.5t-16 43.5l-7 5q-2 0 -8.5 0.5t-13.5 0.5t-12 -2t-5 -7q0 -1 10 -29t27 -74t38.5 -105t44.5 -122t45.5 -124t41 -111t31.5 -84.5t16 -43.5l7 -5q2 0 8.5 -0.5t12.5 -0.5q7 0 12.5 2t5.5 7z" />
    <glyph glyph-name="bracketright" unicode="]" horiz-adv-x="226" 
d="M176 -8v750l-7 8q-28 0 -55.5 0.5t-55.5 0.5q-8 0 -8 -8v-22q2 -5 12.5 -7t23.5 -2.5l26 -1t19 -1.5v-684l-74 -4l-7 -8v-22q2 -7 8 -7h111z" />
    <glyph glyph-name="asciicircum" unicode="^" horiz-adv-x="515" 
d="M465 560q0 2 -12 15t-30 31.5t-39.5 39.5t-41 40.5t-34.5 33.5t-19 18q-2 2 -6 2h-51l-180 -174l-2 -6q0 -8 9 -8h27l172 160l172 -160q8 0 20 -1t15 9z" />
    <glyph glyph-name="underscore" unicode="_" horiz-adv-x="540" 
d="M574 -221v23l-8 8h-586l-8 -8v-23l8 -8h586z" />
    <glyph glyph-name="grave" unicode="`" horiz-adv-x="272" 
d="M222 558q0 1 -8 17t-20.5 39.5t-27.5 51t-28.5 52t-23.5 43t-13 23.5l-7 4h-35q-9 0 -9 -8q0 -1 9.5 -17t24 -39.5t32 -51t33 -52t27 -42.5t14.5 -23l7 -4q5 0 15 -0.5t10 7.5z" />
    <glyph glyph-name="a" unicode="a" horiz-adv-x="448" 
d="M398 8v332q0 42 -11 68.5t-31.5 42.5t-50.5 22t-68 6q-18 0 -38.5 -2.5t-41 -7.5t-40 -13t-34.5 -18l-3 -7q0 -3 -0.5 -9t0 -13t2 -12t5.5 -5q2 0 15.5 8t34 17.5t47 17.5t54.5 8q55 0 87 -21.5t32 -81.5v-54q-28 1 -62 1q-33 0 -67 -3t-66 -11.5t-57 -25.5t-40 -43.5
t-15 -66.5q0 -64 40 -103.5t104 -39.5q57 0 98 28t66 78l2 -92l8 -8h22zM356 252h-1q0 -13 -0.5 -26t-1.5 -26q-3 -33 -15 -63.5t-32 -54.5t-48.5 -38t-64.5 -14q-22 0 -40 9t-31 23.5t-20 34t-7 40.5q0 37 16.5 60t42 36t57 17t62.5 4h41t42 -2z" />
    <glyph glyph-name="b" unicode="b" horiz-adv-x="501" 
d="M451 277q0 101 -47.5 151.5t-150.5 50.5q-49 0 -91.5 -19t-70.5 -61v353l-8 8h-26l-7 -8v-746q0 -2 1 -5t4 -3h13q9 0 14 2q30 -4 60.5 -5t61.5 -1q60 0 106 23.5t77.5 62.5t47.5 90t16 107zM410 277q0 -47 -13 -91.5t-38.5 -79t-64 -55.5t-90.5 -21h-22q-16 0 -34.5 0.5
t-34.5 2t-22 3.5v277q0 29 15.5 53t39.5 41t52.5 26.5t54.5 9.5q82 0 119.5 -43t37.5 -123z" />
    <glyph glyph-name="c" unicode="c" horiz-adv-x="479" 
d="M427 38q0 8 1 20.5t-8 16.5q-1 0 -14.5 -7t-35 -15.5t-49 -15.5t-55.5 -7q-48 0 -81 18t-54 48t-30.5 69.5t-9.5 82.5q0 42 10.5 78.5t32.5 62.5t54.5 41t77.5 15q23 0 46.5 -5t43 -11.5t33.5 -11.5t18 -5q6 0 6 7v31l-5 7q-32 12 -70.5 18t-71.5 6q-54 0 -94.5 -16.5
t-67.5 -47.5t-40.5 -74t-13.5 -95q0 -55 11.5 -101.5t37 -80.5t67 -53t100.5 -19q18 0 38.5 2.5t41.5 7t41 11.5t36 16z" />
    <glyph glyph-name="d" unicode="d" horiz-adv-x="507" 
d="M457 8v744l-7 8h-26l-8 -8v-280q-31 3 -62 5t-62 2q-126 0 -184 -62t-58 -187q0 -51 11 -94.5t35.5 -75t63 -49t93.5 -17.5q54 0 97 28.5t67 76.5l2 -91l8 -8h23zM416 430l-1 -200q0 -37 -9.5 -73t-29 -64t-50 -45.5t-72.5 -17.5q-45 0 -76 16t-50.5 43.5t-28 63.5
t-8.5 77q0 102 48 157.5t153 55.5q27 0 62.5 -2.5t61.5 -10.5z" />
    <glyph glyph-name="e" unicode="e" horiz-adv-x="492" 
d="M442 252q0 45 -8.5 86t-28.5 73t-54.5 51t-86.5 19t-92 -17t-67 -47t-41 -72t-14 -92q0 -58 11 -105.5t36 -81.5t66.5 -53t103.5 -19q18 0 38 2.5t40 7t39.5 11.5t34.5 16l4 7q0 3 0.5 9t0 12t-2 11t-5.5 5q-2 0 -15.5 -7t-34.5 -15.5t-46.5 -15.5t-52.5 -7q-47 0 -80 16
t-54 43.5t-31 65t-10 81.5q86 0 171 2.5t171 5.5zM400 281q-70 -5 -139.5 -6.5t-139.5 -1.5h-29q1 37 13.5 69t35 54.5t54 35.5t69.5 13q34 0 59.5 -14t42 -37.5t25 -53t9.5 -59.5z" />
    <glyph glyph-name="f" unicode="f" horiz-adv-x="404" 
d="M354 680v33l-5 7q-18 9 -43 12.5t-45 3.5q-63 0 -92.5 -26t-40.5 -66.5t-9.5 -89.5t1.5 -95h-62l-8 -8v-22l9 -8h61v-413l8 -8h25l8 8v413h168l8 8v22l-9 8h-168v116q0 27 5 49.5t16.5 39.5t31 26.5t49.5 9.5q19 0 41.5 -6t37.5 -19z" />
    <glyph glyph-name="g" unicode="g" horiz-adv-x="456" 
d="M406 -12v471l-8 8q-28 7 -57.5 9.5t-57.5 2.5q-52 0 -95 -21.5t-73.5 -57.5t-47.5 -83t-17 -98q0 -41 8 -81t27 -71.5t50 -51t78 -19.5q50 0 89.5 29t62.5 71v-118q0 -34 -9 -64t-28 -53t-47 -36.5t-66 -13.5q-13 0 -30 2t-34.5 7t-32.5 12.5t-24 19.5l-6 3q-8 0 -8 -8
v-39q10 -10 27.5 -16.5t37 -10.5t38.5 -5.5t32 -1.5q49 0 85 17t59.5 46t35 68t11.5 83zM366 432l-1 -191q0 -32 -10 -69t-29.5 -68t-48 -51.5t-64.5 -20.5t-59.5 18t-37.5 45.5t-19.5 60.5t-5.5 63q0 42 13.5 82.5t38.5 72t60.5 50.5t79.5 19q21 0 42 -2.5t41 -8.5z" />
    <glyph glyph-name="h" unicode="h" horiz-adv-x="491" 
d="M441 8v305q0 44 -13.5 75.5t-38.5 51.5t-59 29.5t-76 9.5q-48 0 -91 -19.5t-71 -60.5v353l-8 8h-26l-8 -8v-744l8 -8h26l8 8v307q0 29 16 52.5t40 40.5t52.5 26t53.5 9q31 0 57.5 -8t46 -24.5t30.5 -40.5t11 -57v-305l8 -8h26z" />
    <glyph glyph-name="i" unicode="i" horiz-adv-x="155" 
d="M105 595v39l-8 8h-40l-7 -8v-39l8 -7h40zM98 8v458l-8 8h-26l-8 -8v-458l9 -8h26z" />
    <glyph glyph-name="j" unicode="j" horiz-adv-x="334" 
d="M284 595v39l-8 8h-39l-7 -8v-39l7 -7h39zM277 27v439l-7 8h-26l-8 -8q0 -110 0.5 -219.5t0.5 -219.5q0 -29 -2 -66.5t-12 -71t-32.5 -56.5t-62.5 -23q-15 0 -34.5 5.5t-30.5 18.5l-6 3q-7 0 -7 -8v-29l4 -7q15 -10 35.5 -14.5t38.5 -4.5q53 0 83 24t44.5 61t18 82t3.5 86
z" />
    <glyph glyph-name="k" unicode="k" horiz-adv-x="448" 
d="M398 8q0 3 -3 6q-68 67 -137.5 132t-139.5 131l237 191l3 6q0 8 -9 8h-35q-56 -47 -111 -93t-112 -93v457l-8 8h-25l-8 -8v-745l9 -8h25l8 8v244l262 -252h36q3 0 5 3t3 5z" />
    <glyph glyph-name="l" unicode="l" horiz-adv-x="328" 
d="M277 20q0 8 0.5 21t-7.5 16q-2 0 -7 -4t-13 -9.5t-20.5 -9.5t-30.5 -4q-41 0 -63 23t-32 56.5t-12 71t-2 66.5q0 127 0.5 252.5t0.5 252.5l-8 8h-26l-7 -8v-505q0 -41 3.5 -86t18 -82t44.5 -61t83 -24q18 0 38.5 4.5t35.5 14.5z" />
    <glyph glyph-name="m" unicode="m" horiz-adv-x="754" 
d="M704 8v305q0 77 -40 121.5t-120 44.5q-51 0 -91.5 -26t-64.5 -70q-19 44 -61 70t-89 26q-46 0 -84 -22t-63 -60l-3 69l-8 8h-22l-8 -8v-458l8 -8h26l8 8v304q0 27 13 51t34 42t47 28t52 10q60 0 89 -36.5t29 -93.5v-305l8 -8h26l8 8v305q0 27 13.5 50.5t34.5 41.5t47 28
t51 10q62 0 90 -35.5t28 -94.5v-305l8 -8h26z" />
    <glyph glyph-name="n" unicode="n" horiz-adv-x="491" 
d="M441 8v305q0 44 -14 75.5t-38.5 51.5t-59 29.5t-75.5 9.5q-50 0 -93 -21.5t-70 -63.5l-3 72l-8 8h-22l-8 -8v-458l8 -8h26l8 8v314q0 26 17 48t42 38.5t53 25.5t50 9q31 0 57.5 -8t46 -24.5t30.5 -40.5t11 -57v-305l8 -8h26z" />
    <glyph glyph-name="o" unicode="o" horiz-adv-x="543" 
d="M493 239q0 55 -12.5 100t-39 76.5t-68.5 48.5t-101 17t-101 -17t-69 -48.5t-39.5 -76t-12.5 -100.5q0 -53 13.5 -98t41.5 -77.5t70 -51t98 -18.5t97.5 18.5t68.5 51t40.5 77.5t13.5 98zM452 239h-1q0 -42 -10.5 -80t-32.5 -66.5t-56 -45.5t-80 -17t-80 17t-56.5 45.5
t-33.5 66.5t-11 80q0 44 10.5 82t32.5 65.5t56.5 43t82.5 15.5t82 -15.5t55.5 -43.5t31.5 -65.5t10 -81.5z" />
    <glyph glyph-name="p" unicode="p" horiz-adv-x="494" 
d="M444 267q0 100 -48.5 157t-151.5 57q-48 0 -87.5 -21t-65.5 -61v67l-8 8h-26l-7 -8v-691l7 -8h26l8 8v232q27 -6 55 -9.5t56 -3.5q57 0 101.5 23t76 61t48 87t16.5 102zM403 267q0 -45 -13 -87.5t-38.5 -76t-63 -53.5t-86.5 -20q-28 0 -56 3t-54 13v226q0 34 10 65.5
t29.5 55.5t47.5 38t65 14q42 0 72 -13t49.5 -36.5t28.5 -56.5t9 -72z" />
    <glyph glyph-name="q" unicode="q" horiz-adv-x="498" 
d="M448 -225v692q0 2 -1.5 5t-3.5 3q-8 0 -16 1.5t-15 -0.5l-60 2t-61 1q-118 0 -179.5 -66t-61.5 -182q0 -49 8.5 -92t29.5 -75.5t57 -51t92 -18.5q57 0 100.5 27.5t69.5 78.5v-325l8 -8h26zM409 437h-1q1 -59 0 -118t-5 -118q-2 -34 -14.5 -65t-34 -54.5t-51 -37.5
t-65.5 -14q-44 0 -72.5 17.5t-45 45.5t-23 64t-6.5 74q0 48 13 87t38.5 66.5t63 43t86.5 15.5q29 0 58.5 -0.5t58.5 -5.5z" />
    <glyph glyph-name="r" unicode="r" horiz-adv-x="330" 
d="M322 438v30l-7 8q-8 2 -16 2h-17q-45 0 -83.5 -20t-65.5 -57v65l-8 8h-26l-7 -8v-458l8 -8h26l8 8v299q0 28 11 51.5t29.5 40.5t43 27t51.5 10q9 0 21 -0.5t22 -4.5z" />
    <glyph glyph-name="s" unicode="s" horiz-adv-x="391" 
d="M341 114q0 42 -18.5 68.5t-46 44t-60 30.5t-60 27.5t-46 34.5t-18.5 53q0 21 9 35t23.5 22.5t32.5 12t36 3.5q19 0 39 -4t37.5 -8.5t31 -8.5t19.5 -4q2 0 3.5 3t1.5 5v29l-6 7q-30 9 -62.5 13t-63.5 4q-26 0 -51.5 -5.5t-45.5 -18.5t-32.5 -34t-12.5 -51
q0 -43 18.5 -69.5t46 -44.5t60 -30.5t60 -26.5t46 -33.5t18.5 -51.5q0 -24 -10.5 -40.5t-27.5 -26.5t-38 -14.5t-41 -4.5q-25 0 -40.5 2.5t-28 7t-25.5 10.5t-32 13q-7 0 -7 -8v-33l5 -6q27 -11 62 -16.5t64 -5.5t57.5 6t51.5 20.5t37 37.5t14 56z" />
    <glyph glyph-name="t" unicode="t" horiz-adv-x="412" 
d="M368 28q0 3 0.5 9t0 12t-2 11t-5.5 5t-14 -5.5t-24 -12t-31.5 -12t-36.5 -5.5q-24 0 -39.5 10t-24.5 26t-12.5 36.5t-3.5 40.5v278h170l8 8v22l-9 8h-169v141l-9 8h-20l-8 -8q-1 -35 -1.5 -70.5t-2.5 -70.5h-69l-8 -8v-22l9 -8h69v-278q0 -33 5.5 -60.5t19 -47t37 -30.5
t59.5 -11q25 0 55.5 7t52.5 21z" />
    <glyph glyph-name="u" unicode="u" horiz-adv-x="483" 
d="M433 8v458l-8 8h-26l-7 -8q0 -67 -0.5 -133t-0.5 -133q0 -35 -14 -66t-37 -54t-54.5 -36.5t-65.5 -13.5q-36 0 -60.5 13t-40 35.5t-22 51t-6.5 60.5l3 276q-2 7 -7 8h-26l-8 -8q-3 -138 -3 -276q0 -41 9.5 -77t30 -62.5t53 -41.5t77.5 -15q59 0 103 27.5t70 78.5l1 -92
l8 -8h23z" />
    <glyph glyph-name="v" unicode="v" horiz-adv-x="474" 
d="M424 468q0 3 -3 4.5t-5 1.5h-26l-7 -5q-36 -100 -72.5 -197.5t-74.5 -196.5l-140 394l-8 5q-2 0 -8 0.5t-13 0t-12 -2t-5 -4.5t11.5 -35.5t29 -80.5t38.5 -105t40 -107.5t33 -87.5t18 -47l8 -5h15l7 5q3 7 11.5 30.5t21.5 56.5t28.5 73.5t31 82t30 80.5t26 69.5
t18.5 49.5t7 21z" />
    <glyph glyph-name="w" unicode="w" horiz-adv-x="719" 
d="M669 469q0 2 -3 3.5t-5 1.5h-22l-8 -6q-29 -101 -58 -200.5t-58 -200.5l-151 402l-7 5h-18l-7 -5q-35 -100 -71 -199t-71 -199l-95 397l-8 6q-3 0 -9.5 0.5t-13 0t-11 -2.5t-2.5 -8l111 -458l7 -6h30l8 5q35 100 70 199.5t71 199.5l149 -399l8 -5h25l8 6q3 10 13.5 47
t25 87.5t31 107.5t30 105t22.5 80.5t9 35.5z" />
    <glyph glyph-name="x" unicode="x" horiz-adv-x="510" 
d="M460 7l-12 16.5t-31 41t-41.5 54t-42.5 56t-35.5 46.5t-20.5 26q5 7 19 25.5t32.5 43t39 50.5t37 48.5t27.5 37t11 15.5q0 7 -8 7h-32l-7 -4q-34 -51 -70.5 -99t-72.5 -97q-37 49 -73 98t-72 99l-6 3q-4 0 -10.5 0.5t-12.5 0.5t-11 -2t-7 -6q0 -1 11.5 -15.5t28.5 -37
t38 -49t40 -51t33 -43t19 -24.5q-6 -7 -21.5 -27.5t-35.5 -46.5t-42 -54.5t-40 -53t-30 -41t-12 -17.5q0 -7 8 -7h32l7 3q38 55 76.5 109.5t80.5 107.5q40 -54 80.5 -107t78.5 -109l7 -4q4 0 10 -0.5t12 -0.5t11 1.5t7 6.5z" />
    <glyph glyph-name="y" unicode="y" horiz-adv-x="546" 
d="M496 469q0 2 -3 3.5t-5 1.5h-31l-7 -5q-45 -104 -91 -206.5t-92 -206.5l-173 413l-7 5q-2 0 -8 0.5t-12.5 0t-11.5 -2t-5 -4.5q0 -2 13 -34t33 -80t44 -104.5t45 -107t37 -87.5t20 -46q-2 -5 -10 -21.5t-18 -38.5t-21.5 -46t-21 -45t-15.5 -35.5t-6 -16.5q0 -3 3 -4t5 -1
h30l7 4q4 10 19.5 43t37.5 81t48.5 106t53.5 117.5t52.5 116t45.5 100.5t32 71t12 29z" />
    <glyph glyph-name="z" unicode="z" horiz-adv-x="484" 
d="M434 8v21l-8 8h-318l321 409v20l-8 8h-350l-8 -8v-21l8 -8h302l-323 -410v-19l8 -8h368z" />
    <glyph glyph-name="braceleft" unicode="{" horiz-adv-x="243" 
d="M193 -15v24l-8 8q-23 0 -32.5 6.5t-12.5 18t-1.5 28t1.5 37.5q0 54 3.5 111t-3.5 111q-2 15 -12.5 25t-25.5 12q13 3 25.5 13t12.5 25l2 300q0 7 4.5 11t11.5 5.5t14 1.5h13l8 8v24l-8 8h-27q-26 0 -38.5 -13.5t-18 -33.5t-5.5 -42v-40q0 -56 4 -113.5t-3 -113.5
q-2 -14 -14 -20t-25 -6l-8 -8v-15l8 -8q20 0 29 -8.5t11.5 -22t1.5 -29t-1 -30.5q0 -57 -2.5 -113.5t2.5 -113.5q2 -23 19 -38.5t40 -15.5h27z" />
    <glyph glyph-name="bar" unicode="|" horiz-adv-x="145" 
d="M95 -175v927l-9 8h-28l-8 -8v-927l9 -8h28z" />
    <glyph glyph-name="braceright" unicode="}" horiz-adv-x="247" 
d="M197 357v15l-9 8q-11 0 -24 5.5t-14 19.5l-8 302q-1 25 -16.5 40t-40.5 15h-27l-8 -8v-24l9 -8q11 0 25 -1t16 -15q4 -28 3.5 -57.5t-0.5 -58.5q0 -46 -1 -94t5 -93q2 -14 12.5 -23.5t24.5 -13.5q-20 -6 -29 -22t-11.5 -36t-1.5 -42t1 -38q0 -48 1.5 -97t-5.5 -97
q-2 -15 -15.5 -16t-25.5 -1l-8 -8v-24l9 -7h27q27 0 40 18t17.5 43t3.5 52t-1 45q0 48 -1.5 96.5t5.5 95.5q2 13 15 17t24 4z" />
    <glyph glyph-name="asciitilde" unicode="~" horiz-adv-x="526" 
d="M476 657l-12 19l-6 4q-3 0 -10 -7t-18 -16t-26.5 -16t-36.5 -7q-26 0 -50.5 7.5t-49.5 16t-50 16t-51 7.5q-8 0 -27 -5.5t-38.5 -13.5t-35 -18.5t-15.5 -19.5q0 -2 2.5 -6.5t5.5 -9t6 -8t4 -3.5q4 0 13 7.5t21.5 16.5t29 16.5t34.5 7.5q25 0 50.5 -7t50 -16t49.5 -16
t51 -7q29 0 58.5 14t49.5 34z" />
    <glyph glyph-name="exclamdown" unicode="&#xa1;" horiz-adv-x="148" 
d="M98 668v36l-6 7h-36l-6 -7v-36l6 -7h36zM94 2v598l-8 8h-29l-7 -8v-598l7 -8h29z" />
    <glyph glyph-name="cent" unicode="&#xa2;" horiz-adv-x="479" 
d="M427 38q0 8 1 20.5t-8 16.5q-2 0 -6 -2q-29 -20 -63 -30.5t-69 -12.5v415q16 -1 37 -6.5t39.5 -11.5t32.5 -10.5t16 -4.5q6 0 6 7v31l-5 7q-29 11 -62 16.5t-64 7.5v47l-8 8h-29l-7 -8v-48q-49 -5 -84.5 -24t-58.5 -49.5t-34 -71t-11 -87.5q0 -49 9.5 -92.5t31.5 -77.5
t58 -56t89 -27v-65l7 -8h29l8 8v64q33 2 72.5 11t68.5 26zM238 32q-42 6 -70 26t-45 50t-24.5 66t-7.5 74q0 37 8 70.5t26 59.5t46 43t67 22v-411z" />
    <glyph glyph-name="sterling" unicode="&#xa3;" horiz-adv-x="476" 
d="M425 8q0 3 0.5 9t0 11.5t-2.5 10t-7 4.5q-37 0 -74.5 -2t-75.5 -2h-164q18 27 33.5 60.5t27 68.5t18 71t6.5 68v20t-2 20l172 -4l8 8v27l-9 8h-177q-4 22 -11 44.5t-14 44.5t-12 44.5t-5 45.5q0 30 11.5 50.5t30.5 33t43.5 18t50.5 5.5q21 0 42 -4t39.5 -9.5t31.5 -9.5
t17 -4q3 0 5 3t2 5v29l-7 8q-31 10 -64.5 15.5t-66.5 5.5q-35 0 -67.5 -8t-57.5 -25.5t-39.5 -45t-14.5 -67.5q0 -23 4.5 -45.5t11.5 -44.5t14.5 -44.5t12.5 -44.5h-64l-8 -8v-25l9 -8q17 0 34.5 1t35.5 1v-40q0 -33 -5.5 -70t-17 -73.5t-29 -69.5t-41.5 -57v-29l9 -8h358z
" />
    <glyph glyph-name="yen" unicode="&#xa5;" horiz-adv-x="503" 
d="M453 701q0 5 -7 5h-27l-7 -5q-41 -88 -81 -175.5t-82 -175.5l-155 351l-7 5q-2 0 -8 0.5t-12.5 0t-11.5 -1.5t-5 -4t11 -28t27.5 -62t36 -80.5t37.5 -83t32 -69.5t18 -39h-114l-7 -8v-22l7 -8h127v-124h-127l-7 -8v-22l7 -8h127v-131l7 -8h29l8 8v131h123l8 8v22l-8 8
h-123v124h123l8 8v22l-8 8h-108q3 8 17 37t33 68.5t40 83.5t38.5 82t29 63.5t11.5 27.5z" />
    <glyph glyph-name="brokenbar" unicode="&#xa6;" horiz-adv-x="505" 
d="M455 488q0 25 -17.5 42.5t-42.5 17.5t-42.5 -17.5t-17.5 -42.5t17.5 -42.5t42.5 -17.5t42.5 17.5t17.5 42.5zM185 488q0 25 -17.5 42.5t-42.5 17.5t-42.5 -17.5t-17.5 -42.5t17.5 -42.5t42.5 -17.5t42.5 17.5t17.5 42.5zM305 101v596l-9 8h-151l-8 -8v-23l9 -8l117 -1
v-569q0 -30 -5 -59.5t-18 -53.5t-36.5 -38.5t-59.5 -14.5q-15 0 -25.5 3.5t-20.5 8.5t-19 10.5t-21 9.5q-8 0 -8 -9l6 -35l4 -6q18 -10 41 -15t44 -5q47 0 78 17.5t49 46.5t25.5 66.5t7.5 78.5zM405 -127l-7 6h-23l-6 -6q0 -45 -25 -76.5t-73 -31.5q-49 0 -73.5 31t-24.5 77
l-6 6h-22l-7 -6q2 -63 34.5 -100.5t98.5 -37.5q63 0 97.5 38.5t36.5 99.5zM443 466q0 -8 -5.5 -13.5t-13.5 -5.5t-13.5 5.5t-5.5 13.5t5.5 13.5t13.5 5.5t13.5 -5.5t5.5 -13.5zM173 466q0 -8 -5.5 -13.5t-13.5 -5.5t-13.5 5.5t-5.5 13.5t5.5 13.5t13.5 5.5t13.5 -5.5
t5.5 -13.5z" />
    <glyph glyph-name="section" unicode="&#xa7;" horiz-adv-x="244" 
d="M194 357q0 29 -7.5 57t-16 56t-16 55.5t-7.5 56.5q0 26 11.5 52.5t31.5 43.5l3 6q0 6 -9 12t-14 9l-10 -2q-21 -23 -34.5 -56.5t-13.5 -64.5q0 -29 7 -57t16 -56t16 -56t7 -56q0 -18 -4.5 -31.5t-11.5 -25.5t-15.5 -24t-16.5 -25q-7 23 -15 52.5t-8 54.5t11.5 51.5
t31.5 43.5l3 7q0 5 -9 11t-14 9l-10 -1q-21 -23 -34.5 -56.5t-13.5 -64.5q0 -29 7 -57t16 -56t16 -56.5t7 -56.5q0 -20 -5 -33.5t-12.5 -25t-16 -23t-14.5 -26.5q0 -2 3 -6t7.5 -8t9 -6.5t7.5 -2.5q9 0 19.5 17.5t18.5 40.5t13.5 44t5.5 29q0 28 -6.5 56.5t-14.5 54.5
q6 -2 10.5 -9.5t13.5 -7.5t19.5 17.5t18.5 40t13.5 44t5.5 29.5z" />
    <glyph glyph-name="dieresis" unicode="&#xa8;" horiz-adv-x="331" 
d="M281 575v44l-7 8h-44l-8 -8v-44l8 -8h44zM109 575v45l-8 8h-44l-7 -8v-45l7 -8h44z" />
    <glyph glyph-name="copyright" unicode="&#xa9;" horiz-adv-x="799" 
d="M749 352q0 73 -26 138.5t-72.5 114.5t-110 77.5t-138.5 28.5t-139 -28.5t-111.5 -77t-74.5 -114t-27 -139.5t27 -139t74.5 -114t111.5 -77t139 -28t138.5 28.5t110 77t72.5 113.5t26 139zM705 352q0 -63 -23.5 -119.5t-64.5 -100t-96 -69t-119 -25.5t-120 25.5t-98 68.5
t-66 100t-24 120t24 120t66 100.5t98 69t120 25.5t119.5 -25.5t96 -69t64 -100.5t23.5 -120zM546 174q0 3 0.5 11t0.5 16q0 9 -2 15t-7 6q-1 0 -12 -6.5t-28 -14t-39.5 -14t-46.5 -6.5q-36 0 -63 14t-44 37.5t-25.5 54t-8.5 63.5q0 36 6.5 67t23 53t43.5 34.5t68 12.5
q18 0 36.5 -4t34.5 -9.5t28 -9.5t17 -4q4 0 5.5 3t1.5 6v34l-6 8q-24 11 -57.5 15.5t-59.5 4.5q-53 0 -89.5 -14.5t-59 -41.5t-32 -66.5t-9.5 -88.5q0 -45 11.5 -84t35 -67.5t59 -45t84.5 -16.5q30 0 66 7.5t64 21.5z" />
    <glyph glyph-name="ordfeminine" unicode="&#xaa;" horiz-adv-x="283" 
d="M231 470v166q0 44 -22.5 59t-62.5 15q-18 0 -40.5 -5.5t-38.5 -16.5l-3 -7v-7t0.5 -9.5t2 -8t4.5 -3.5q2 0 8.5 4t17 9t23.5 9t27 4q25 0 38 -7.5t13 -35.5v-22q-22 0 -47.5 -1t-48 -8t-37.5 -23.5t-15 -46.5q0 -33 20 -54.5t55 -21.5q23 0 41.5 10.5t32.5 29.5v-29l9 -8
h15zM233 411v18l-9 8h-161l-8 -8v-18l9 -8h161zM197 584h-1q0 -18 -3.5 -34.5t-12 -30t-22.5 -21.5t-35 -8q-18 0 -29 14t-11 31q0 16 7.5 26t19.5 15.5t26.5 7t27.5 1.5h16q9 0 17 -1z" />
    <glyph glyph-name="guillemotleft" unicode="&#xab;" horiz-adv-x="443" 
d="M393 208l-4 8l-155 150l156 147l3 8l-7 25l-8 6q-3 0 -16 -12t-31.5 -30t-40.5 -39.5t-41 -41t-34 -34.5l-19 -19l-2 -5q0 -4 0.5 -9t2.5 -8l175 -174l5 -3q4 0 7 4t4.5 9t2.5 10.5t2 7.5zM249 208h-1l-3 8l-155 149l156 148l3 8q-1 2 -2 7t-2.5 10.5t-4 9.5t-6.5 4
q-2 0 -15 -12t-31.5 -30t-40.5 -39.5t-41.5 -41l-34.5 -34.5l-19 -19l-2 -5q0 -4 0.5 -9t2.5 -8q4 -4 18 -18.5t33.5 -34t41.5 -41t40.5 -40t31.5 -30.5t14 -12q8 0 11.5 12.5t5.5 17.5z" />
    <glyph glyph-name="logicalnot" unicode="&#xac;" horiz-adv-x="441" 
d="M391 302v107l-8 7h-325l-8 -7v-23l8 -8h291v-76l8 -8h26z" />
    <glyph glyph-name="registered" unicode="&#xae;" horiz-adv-x="816" 
d="M766 354q0 74 -28.5 139t-77.5 113.5t-114.5 76.5t-138.5 28q-74 0 -138.5 -28t-113.5 -77t-77 -114t-28 -138q0 -74 28 -139t76.5 -114.5t113.5 -78t139 -28.5t139.5 28.5t114 77.5t77 114.5t28.5 139.5zM722 354q0 -63 -25.5 -120.5t-69 -101t-100.5 -69t-120 -25.5
t-120 26t-99.5 69.5t-68 100.5t-25.5 120t25.5 119.5t68.5 100t99.5 69t119.5 25.5t120 -25.5t100.5 -69t69 -100t25.5 -119.5zM572 130q0 2 -1 3.5t-2 3.5q-17 18 -27.5 43t-20.5 48q-4 9 -12 27.5t-18.5 37.5t-22 34t-21.5 17q18 5 32.5 16.5t25 27t16.5 33.5t6 36
q0 67 -35.5 97t-100.5 30q-6 0 -21.5 -0.5t-32.5 -2t-31 -4.5t-16 -9v-437l9 -9h30l8 9v193h68q8 0 18 -12.5t21 -31.5t21.5 -42.5t19.5 -45t16 -39t10 -25.5l8 -6h43q3 0 5.5 3t4.5 5zM479 457q0 -38 -23 -62.5t-61 -24.5h-58v166q27 3 54 3q40 0 64 -20t24 -62z" />
    <glyph glyph-name="macron" unicode="&#xaf;" horiz-adv-x="437" 
d="M387 563v24l-8 7h-321l-8 -7v-24l8 -8h321z" />
    <glyph glyph-name="degree" unicode="&#xb0;" horiz-adv-x="257" 
d="M207 583q0 33 -23 55.5t-56 22.5t-55.5 -22.5t-22.5 -55.5q0 -34 22.5 -56.5t56.5 -22.5t56 23t22 56zM173 583q0 -19 -12.5 -33t-32.5 -14t-32.5 13.5t-12.5 33.5t13 33.5t33 13.5q19 0 31.5 -14.5t12.5 -32.5z" />
    <glyph glyph-name="plusminus" unicode="&#xb1;" horiz-adv-x="417" 
d="M359 385v24l-8 7h-128l1 128l-8 7h-24l-7 -7l1 -128h-129l-7 -7v-24l7 -8l129 1l-1 -128l7 -8h24l8 8l-1 128l128 -1zM367 186v23l-7 8h-294l-8 -8v-23l8 -8h294z" />
    <glyph glyph-name="threesuperior" unicode="&#xb3;" horiz-adv-x="498" 
d="M448 488q0 25 -17.5 42.5t-42.5 17.5t-42.5 -17.5t-17.5 -42.5t17.5 -42.5t42.5 -17.5t42.5 17.5t17.5 42.5zM178 488q0 25 -17.5 42.5t-42.5 17.5t-42.5 -17.5t-17.5 -42.5t17.5 -42.5t42.5 -17.5t42.5 17.5t17.5 42.5zM439 8v117l-8 8h-23l-8 -9v-83q-77 -4 -154 -4
h-153q4 10 17 43t32 81t41.5 106t46 117.5t45.5 115.5t38.5 100t27 71t10.5 29q0 3 -3 4.5t-5 1.5h-28l-6 -5l-259 -666v-27l8 -8q186 1 372 0l6 3zM280 -201q0 5 -7.5 8.5t-11.5 5.5l-10 -2q-14 -22 -40 -22q-19 0 -27.5 13.5t-8.5 30.5q0 9 5.5 21.5t13 25.5t16 24
t14.5 19v-1l3 5l-13 6q-3 8 -14 8l-8 -4q-8 -11 -19 -25t-21 -29t-17 -31t-7 -29q0 -32 20.5 -54t53.5 -22q9 0 22.5 4t26 11t21 16.5t8.5 20.5zM436 466q0 -8 -5.5 -13.5t-13.5 -5.5t-13.5 5.5t-5.5 13.5t5.5 13.5t13.5 5.5t13.5 -5.5t5.5 -13.5zM166 466q0 -8 -5.5 -13.5
t-13.5 -5.5t-13.5 5.5t-5.5 13.5t5.5 13.5t13.5 5.5t13.5 -5.5t5.5 -13.5z" />
    <glyph glyph-name="acute" unicode="&#xb4;" horiz-adv-x="293" 
d="M243 764q0 6 -8 6h-35l-7 -3q-3 -5 -15 -21.5t-27.5 -39t-33.5 -48t-32.5 -47t-24.5 -36.5t-10 -16q0 -8 9 -8h18l5 3q4 5 17.5 21.5t31 39.5t37.5 48t36.5 47t27.5 37t11 17z" />
    <glyph glyph-name="mu" unicode="&#xb5;" horiz-adv-x="483" 
d="M433 466l-8 8h-27l-8 -8v-258q0 -36 -12 -69t-34.5 -57.5t-53.5 -39t-69 -14.5q-35 0 -59.5 17t-40 43.5t-22.5 58.5t-7 61q0 65 2 129t2 129q0 8 -8 8h-27l-8 -8q-3 -140 -3 -278q0 -91 0.5 -180t1.5 -180l8 -8q3 0 9 -0.5t12 -0.5t10.5 2t4.5 7q0 56 -3 112t-5 112
q6 -17 22 -28.5t35.5 -18.5t40 -10t35.5 -3q55 0 94.5 16t65 46t38 72t12.5 94z" />
    <glyph glyph-name="paragraph" unicode="&#xb6;" horiz-adv-x="429" 
d="M379 -92v792l-8 8q-29 1 -57.5 2t-57.5 1q-99 0 -152.5 -43t-53.5 -147q0 -102 55 -155.5t156 -53.5l5 -0.5t5 1.5q0 1 -1 1v0v-406l8 -8h25l8 8v764h25v-764l8 -8h27zM270 353l-2 -3q2 2 -1.5 0.5t-5.5 -1.5q-80 0 -124 46t-44 126q0 83 42.5 118t120.5 35q4 0 7 -0.5
t7 -0.5v-320z" />
    <glyph glyph-name="periodcentered" unicode="&#xb7;" horiz-adv-x="163" 
d="M113 392v48l-9 8h-46l-8 -8v-48l9 -8h46z" />
    <glyph glyph-name="periodcentered" unicode="&#x2219;" horiz-adv-x="163" 
d="M113 392v48l-9 8h-46l-8 -8v-48l9 -8h46z" />
    <glyph glyph-name="cedilla" unicode="&#xb8;" horiz-adv-x="269" 
d="M219 -115q0 13 -6.5 24t-17 19t-22.5 14t-24 9h2l-38 12q0 7 3.5 15t7.5 15.5t7 12.5t3 7q0 7 -8.5 8t-13.5 1l-7 -4q-8 -13 -17 -31.5t-9 -34.5q0 -7 5.5 -12.5t13.5 -9.5t16 -7t14 -5l-2 1q6 -2 14 -5t15.5 -7.5t13 -10.5t5.5 -13q0 -20 -16 -27t-33 -7q-14 0 -25 3.5
t-19.5 8t-14.5 8t-10 3.5q-2 0 -4 -3t-2 -5v-28l5 -7q15 -8 34.5 -12t36.5 -4t34 4t30 12.5t21 22t8 33.5z" />
    <glyph glyph-name="onesuperior" unicode="&#xb9;" horiz-adv-x="595" 
d="M545 620q0 5 -7 7h-26l-7 -7q0 -51 -28.5 -87t-82.5 -36q-55 0 -83 35t-28 88l-7 7h-25q-7 -2 -7 -7q0 -72 39 -114.5t111 -42.5q35 0 63 11.5t47.5 32.5t30 49.5t10.5 63.5zM331 752q2 6 -5 8h-26q-2 -2 -5 -3.5t-5 -4.5l-197 -505q-14 -38 -28.5 -84t-14.5 -87
q0 -47 25 -64.5t69 -17.5q9 0 21.5 1.5t25 4.5t23.5 8t18 12l11 29q2 6 -4 8q-2 0 -8.5 -4t-17 -9.5t-25 -9.5t-30.5 -4q-65 0 -65 64q0 36 13.5 78t26.5 75zM545 -80q0 5 -7 7h-26l-7 -7q0 -51 -28.5 -87t-82.5 -36q-55 0 -83 35t-28 88l-7 7h-25q-7 -2 -7 -7
q0 -72 39 -114.5t111 -42.5q35 0 63 11.5t47.5 32.5t30 49.5t10.5 63.5z" />
    <glyph glyph-name="ordmasculine" unicode="&#xba;" horiz-adv-x="332" 
d="M282 588q0 53 -31.5 88t-85.5 35q-61 0 -88 -33.5t-27 -91.5q0 -55 28.5 -91t86.5 -36q27 0 48.5 10.5t37 28.5t23.5 41t8 49zM258 411v18l-8 8h-169l-8 -8v-18l8 -8h169zM241 588q0 -17 -4.5 -34t-14 -31.5t-24 -23.5t-33.5 -9q-20 0 -35 8t-25.5 21.5t-16 31t-5.5 35.5
t5.5 35t16 30t26 21t34.5 8q17 0 31 -8.5t24 -22t15.5 -29.5t5.5 -32z" />
    <glyph glyph-name="guillemotright" unicode="&#xbb;" horiz-adv-x="435" 
d="M385 360v11l-3 5l-176 173l-6 3q-8 -1 -11 -13t-5 -18l4 -8q39 -37 78 -73.5t78 -74.5l-157 -149l-3 -8q3 -8 6 -18t11 -13q2 0 15 12t31.5 30.5t40.5 40t41.5 41.5t34.5 34.5t19 18.5q0 2 1 3t1 3zM251 360h-1v11l-2 5l-176 173l-6 3q-8 -1 -11 -13t-5 -18l4 -8
l157 -148l-158 -149l-2 -9l10 -24l7 -5q2 0 15 12t31.5 30t40.5 40l41.5 41.5l34 34l18.5 18.5q0 2 1 3t1 3z" />
    <glyph glyph-name="onequarter" unicode="&#xbc;" horiz-adv-x="636" 
d="M586 620q0 5 -7 7h-26l-7 -7q0 -51 -28.5 -87t-82.5 -36q-55 0 -83 35t-28 88l-7 7h-25q-7 -2 -7 -7q0 -72 39 -114.5t111 -42.5q35 0 63 11.5t47.5 32.5t30 49.5t10.5 63.5zM170 548q0 25 -17.5 42.5t-42.5 17.5t-42.5 -17.5t-17.5 -42.5t17.5 -42.5t42.5 -17.5
t42.5 17.5t17.5 42.5zM372 752q2 6 -5 8h-26q-2 -2 -5 -3.5t-5 -4.5l-197 -505q-14 -38 -28.5 -84t-14.5 -87q0 -47 25 -64.5t69 -17.5q9 0 21.5 1.5t25 4.5t23.5 8t18 12l11 29q2 6 -4 8q-2 0 -8.5 -4t-17 -9.5t-25 -9.5t-30.5 -4q-65 0 -65 64q0 36 13.5 78t26.5 75z
M586 -80q0 5 -7 7h-26l-7 -7q0 -51 -28.5 -87t-82.5 -36q-55 0 -83 35t-28 88l-7 7h-25q-7 -2 -7 -7q0 -72 39 -114.5t111 -42.5q35 0 63 11.5t47.5 32.5t30 49.5t10.5 63.5zM158 526q0 -8 -5.5 -13.5t-13.5 -5.5t-13.5 5.5t-5.5 13.5t5.5 13.5t13.5 5.5t13.5 -5.5
t5.5 -13.5z" />
    <glyph glyph-name="onehalf" unicode="&#xbd;" horiz-adv-x="635" 
d="M585 578q0 5 -7 7h-26l-7 -7q0 -51 -28.5 -87t-82.5 -36q-55 0 -83 35t-28 88l-7 7h-25q-7 -2 -7 -7q0 -72 39 -114.5t111 -42.5q35 0 63 11.5t47.5 32.5t30 49.5t10.5 63.5zM191 498q0 25 -17.5 42.5t-42.5 17.5t-42.5 -17.5t-17.5 -42.5t17.5 -42.5t42.5 -17.5
t42.5 17.5t17.5 42.5zM408 34q0 3 0.5 9.5t0 13t-2 12t-5.5 5.5q-3 0 -16.5 -6.5t-34 -15t-46 -15t-50.5 -6.5q-37 0 -66.5 7.5t-50.5 24t-32 43.5t-11 67q0 42 22.5 79t56.5 67t74.5 53t75.5 36l5 7l4 190l-9 8q-3 0 -9.5 0.5t-13.5 0.5t-12 -2t-5 -7v-85q0 -42 2 -84
q-36 -17 -77 -44t-76 -61.5t-58.5 -74.5t-23.5 -83q0 -50 14.5 -84.5t41 -55.5t64.5 -30t85 -9q16 0 36 2t40.5 5.5t39 10t33.5 15.5zM585 -72q0 5 -7 7h-26l-7 -7q0 -51 -28.5 -87t-82.5 -36q-55 0 -83 35t-28 88l-7 7h-25q-7 -2 -7 -7q0 -72 39 -114.5t111 -42.5
q35 0 63 11.5t47.5 32.5t30 49.5t10.5 63.5zM179 476q0 -8 -5.5 -13.5t-13.5 -5.5t-13.5 5.5t-5.5 13.5t5.5 13.5t13.5 5.5t13.5 -5.5t5.5 -13.5z" />
    <glyph glyph-name="threequarters" unicode="&#xbe;" horiz-adv-x="590" 
d="M540 388q0 25 -17.5 42.5t-42.5 17.5t-42.5 -17.5t-17.5 -42.5t17.5 -42.5t42.5 -17.5t42.5 17.5t17.5 42.5zM443 7v147l-8 8h-23l-8 -9v-111q-34 -2 -68 -3.5t-68 -1.5q-41 0 -81 0.5t-81 0.5q24 30 56.5 67t68 78.5t70.5 85.5t62.5 88.5t44.5 87.5t17 82q0 51 -12.5 86
t-37 56.5t-61 30.5t-84.5 9q-36 0 -73 -6.5t-72 -15.5l-6 -8q0 -2 -0.5 -8t0 -12.5t1.5 -11.5t4 -5q7 0 22.5 4.5t35.5 9.5t42.5 9.5t44.5 4.5q72 0 112.5 -33t40.5 -110q0 -35 -18 -77.5t-47.5 -88t-66 -91.5t-73.5 -88t-70.5 -79t-56.5 -63v-32l8 -8h354h23zM270 388
q0 25 -17.5 42.5t-42.5 17.5t-42.5 -17.5t-17.5 -42.5t17.5 -42.5t42.5 -17.5t42.5 17.5t17.5 42.5zM516 -80q0 5 -7 7h-26l-7 -7q0 -51 -28.5 -87t-82.5 -36q-55 0 -83 35t-28 88l-7 7h-25q-7 -2 -7 -7q0 -72 39 -114.5t111 -42.5q35 0 63 11.5t47.5 32.5t30 49.5
t10.5 63.5zM528 366q0 -8 -5.5 -13.5t-13.5 -5.5t-13.5 5.5t-5.5 13.5t5.5 13.5t13.5 5.5t13.5 -5.5t5.5 -13.5zM258 366q0 -8 -5.5 -13.5t-13.5 -5.5t-13.5 5.5t-5.5 13.5t5.5 13.5t13.5 5.5t13.5 -5.5t5.5 -13.5z" />
    <glyph glyph-name="questiondown" unicode="&#xbf;" horiz-adv-x="459" 
d="M328 668v36l-6 7h-36l-6 -7v-36l6 -7h36zM408 34q0 3 0.5 9.5t0 13t-2 12t-5.5 5.5q-3 0 -16.5 -6.5t-34 -15t-46 -15t-50.5 -6.5q-37 0 -66.5 7.5t-50.5 24t-32 43.5t-11 67q0 42 22.5 79t56.5 67t74.5 53t75.5 36l5 7l4 190l-9 8q-3 0 -9.5 0.5t-13.5 0.5t-12 -2t-5 -7
v-85q0 -42 2 -84q-36 -17 -77 -44t-76 -61.5t-58.5 -74.5t-23.5 -83q0 -50 14.5 -84.5t41 -55.5t64.5 -30t85 -9q16 0 36 2t40.5 5.5t39 10t33.5 15.5z" />
    <glyph glyph-name="Agrave" unicode="&#xc0;" horiz-adv-x="649" 
d="M400 728q0 1 -8.5 17t-21 39.5t-27.5 51t-28.5 52t-23.5 42.5t-13 23l-7 4h-35q-8 0 -8 -8q0 -1 9.5 -17t24 -39.5t32 -51t33 -52t27 -42.5t14.5 -23l7 -3q1 0 5.5 -0.5t8.5 0t7.5 2t3.5 5.5zM599 6q0 3 -8.5 27.5t-21.5 61t-28.5 79t-29.5 81t-24.5 68.5t-14.5 40
l-118 338l-8 5h-38l-7 -5q-12 -34 -35 -98t-51 -141t-57 -158t-53 -147t-39.5 -108t-15.5 -43q0 -3 3.5 -4.5t5.5 -1.5h28l8 5q25 69 49 136.5t49 136.5h264l98 -273l8 -5q2 0 8 -0.5t12 0t11 2t5 4.5zM445 317h-239l122 335z" />
    <glyph glyph-name="Aacute" unicode="&#xc1;" horiz-adv-x="649" 
d="M452 942q0 8 -8 8h-35l-7 -3q-3 -5 -15 -21.5t-28 -39t-33.5 -48t-32.5 -47t-24.5 -36t-9.5 -16.5q0 -8 9 -8h18l6 3q3 4 16 21t31 40t38 48t36.5 46.5t27.5 36.5t11 16zM599 6q0 3 -8.5 27.5t-21.5 61t-28.5 79t-29.5 81t-24.5 68.5t-14.5 40l-118 338l-8 5h-38l-7 -5
q-12 -34 -35 -98t-51 -141t-57 -158t-53 -147t-39.5 -108t-15.5 -43q0 -3 3.5 -4.5t5.5 -1.5h28l8 5q25 69 49 136.5t49 136.5h264l98 -273l8 -5q2 0 8 -0.5t12 0t11 2t5 4.5zM445 317h-239l122 335z" />
    <glyph glyph-name="Acircumflex" unicode="&#xc2;" horiz-adv-x="649" 
d="M544 723q0 2 -12 14.5t-30 31t-39.5 40t-41 40.5t-34.5 33.5t-19 18.5q-2 2 -6 2h-52q-4 -4 -18.5 -18t-35 -33.5t-43 -41.5t-41 -40.5l-31 -31t-12.5 -13.5q0 -9 8 -9h28q42 41 85 80t87 79l172 -159q7 0 19.5 -0.5t15.5 7.5zM599 6q0 3 -8.5 27.5t-21.5 61t-28.5 79
t-29.5 81t-24.5 68.5t-14.5 40l-118 338l-8 5h-38l-7 -5q-12 -34 -35 -98t-51 -141t-57 -158t-53 -147t-39.5 -108t-15.5 -43q0 -3 3.5 -4.5t5.5 -1.5h28l8 5q25 69 49 136.5t49 136.5h264l98 -273l8 -5q2 0 8 -0.5t12 0t11 2t5 4.5zM445 317h-239l122 335z" />
    <glyph glyph-name="Atilde" unicode="&#xc3;" horiz-adv-x="649" 
d="M540 810l-12 18l-6 4q-2 0 -8 -7t-15.5 -15t-23.5 -15t-33 -7q-22 0 -43.5 7.5t-43 16t-43.5 16t-45 7.5q-29 0 -57 -17.5t-46 -38.5v-10q4 -5 8.5 -12t11.5 -7l7 7.5t18.5 16.5t26.5 16.5t31 7.5q22 0 43.5 -7t43 -15.5t43.5 -15.5t45 -7q26 0 53 14t44 34zM599 6
q0 3 -8.5 27.5t-21.5 61t-28.5 79t-29.5 81t-24.5 68.5t-14.5 40l-118 338l-8 5h-38l-7 -5q-12 -34 -35 -98t-51 -141t-57 -158t-53 -147t-39.5 -108t-15.5 -43q0 -3 3.5 -4.5t5.5 -1.5h28l8 5q25 69 49 136.5t49 136.5h264l98 -273l8 -5q2 0 8 -0.5t12 0t11 2t5 4.5z
M445 317h-239l122 335z" />
    <glyph glyph-name="Adieresis" unicode="&#xc4;" horiz-adv-x="649" 
d="M445 748v44l-9 8h-43l-7 -8v-44l8 -8h43zM272 748v45l-8 8h-43l-7 -8v-45l8 -8h43zM599 6q0 3 -8.5 27.5t-21.5 61t-28.5 79t-29.5 81t-24.5 68.5t-14.5 40l-118 338l-8 5h-38l-7 -5q-12 -34 -35 -98t-51 -141t-57 -158t-53 -147t-39.5 -108t-15.5 -43q0 -3 3.5 -4.5
t5.5 -1.5h28l8 5q25 69 49 136.5t49 136.5h264l98 -273l8 -5q2 0 8 -0.5t12 0t11 2t5 4.5zM445 317h-239l122 335z" />
    <glyph glyph-name="Aring" unicode="&#xc5;" horiz-adv-x="649" 
d="M599 6q0 3 -8.5 27.5t-21.5 61t-28.5 79t-29.5 81t-24.5 68.5t-14.5 40l-112 321q20 8 30 27t10 39q0 30 -21 50.5t-51 20.5q-29 0 -50 -20.5t-21 -50.5q0 -20 9.5 -38.5t29.5 -27.5q-12 -34 -35 -97t-50 -138t-56 -153.5t-52 -142.5t-38 -105t-15 -42q0 -3 3.5 -4.5
t5.5 -1.5h28l8 5q25 69 49 136.5t49 136.5h264l98 -273l8 -5q2 0 8 -0.5t12 0t11 2t5 4.5zM369 750h-1q0 -18 -10.5 -30t-29.5 -12q-18 0 -29 12.5t-11 29.5t11.5 29.5t29.5 12.5q17 0 28.5 -12.5t11.5 -29.5zM446 317h-240l122 335z" />
    <glyph glyph-name="AE" unicode="&#xc6;" horiz-adv-x="790" 
d="M739 5q0 3 0.5 9.5t0.5 12.5t-2 10.5t-7 4.5q-70 0 -139.5 -2t-139.5 -2l-3 314h149h24t25 -1q4 -1 8 -1.5t4 -1.5q9 0 9 8v25l-8 8h-211q0 70 -1 139.5t-1 139.5h276l4 30l-7 8h-348l-7 -5q-5 -10 -20.5 -45t-38.5 -85t-51 -111t-56.5 -123.5t-55 -121.5t-47.5 -105
t-33.5 -74.5t-12.5 -30.5t3 -3.5t5 -1.5h29l7 5l155 347h157l3 -344l7 -8q157 0 315 -3zM406 389h-141q31 70 62.5 139.5t62.5 139.5h14q0 -70 1 -139.5t1 -139.5z" />
    <glyph glyph-name="Ccedilla" unicode="&#xc7;" horiz-adv-x="667" 
d="M616 44q0 2 0.5 7.5t0 11.5t-2 10.5t-4.5 4.5t-5 -1q-56 -17 -106.5 -31.5t-110.5 -14.5q-74 0 -129.5 25t-92 69.5t-54.5 104.5t-18 130q0 74 17 132.5t52.5 99t91 61.5t133.5 21q32 0 56 -2.5t46.5 -8t45.5 -12.5t52 -16q2 -1 3 -0.5t3 0.5q6 0 6 7v31l-5 6
q-50 20 -102 26t-105 6q-176 0 -257 -90.5t-81 -260.5q0 -72 16.5 -135t51.5 -111t89.5 -79t131.5 -38q-5 -11 -9.5 -22t-4.5 -23q0 -7 5.5 -12.5t13 -9.5t16 -7t13.5 -5l-1 1q6 -2 14 -5t15.5 -7.5t12.5 -10.5t5 -13q0 -20 -15.5 -27t-32.5 -7q-14 0 -25 3.5t-20 8t-14.5 8
t-8.5 3.5q-7 0 -7 -8v-28l4 -7q15 -8 34.5 -12t36.5 -4t34 4t30 12.5t21 22t8 33.5q0 17 -6.5 26.5t-17 16t-22.5 11.5t-22 12h1l-37 12q0 8 3 16t7 16q27 -1 58.5 1t63.5 7.5t62.5 13.5t56.5 20z" />
    <glyph glyph-name="Egrave" unicode="&#xc8;" horiz-adv-x="434" 
d="M254 731q0 1 -8 17t-20.5 39.5t-27.5 51t-28.5 52t-23.5 43t-13 23.5l-7 4h-35q-9 0 -9 -8q0 -1 9.5 -17t24 -39.5t32 -51t33 -52t27 -42.5t14.5 -23l7 -4q5 0 15 -0.5t10 7.5zM383 5q0 4 0.5 10.5t0 13t-2.5 11t-7 4.5q-34 0 -68 -2.5t-68 -2.5h-69q-19 0 -38 0.5
t-38 0.5v307h145q29 0 57.5 -2t57.5 -2q9 0 9 8v27l-8 8h-261v281h145q32 0 62.5 -2t62.5 -2q8 0 8 8v27l-7 8h-306l-8 -8q1 -345 0 -690l8 -8q80 0 158.5 -0.5t158.5 -2.5z" />
    <glyph glyph-name="Eacute" unicode="&#xc9;" horiz-adv-x="434" 
d="M329 942q0 7 -7 7h-36l-6 -3q-3 -5 -15 -21.5t-28 -39t-33.5 -48t-32.5 -47t-25 -36.5t-10 -16q0 -8 9 -8h17l6 3q4 5 17.5 21.5t31 39.5t37.5 48t36.5 47t27.5 36.5t11 16.5zM383 5q0 4 0.5 10.5t0 13t-2.5 11t-7 4.5q-34 0 -68 -2.5t-68 -2.5h-69q-19 0 -38 0.5
t-38 0.5v307h145q21 0 42.5 -2t42.5 -2q9 0 9 8v27l-8 8h-231v281h145q32 0 62.5 -2t62.5 -2q8 0 8 8v27l-7 8h-306l-8 -8q1 -345 0 -690l8 -8q80 0 158.5 -0.5t158.5 -2.5z" />
    <glyph glyph-name="Ecircumflex" unicode="&#xca;" horiz-adv-x="515" 
d="M465 723q0 2 -12 14.5t-30 31t-39.5 39.5t-41 40.5t-34.5 33.5t-19 18q-2 2 -6 2h-51l-180 -173l-2 -6q0 -7 9 -7h27l172 158l171 -158q8 0 20.5 -0.5t15.5 7.5zM433 5q0 4 0.5 10.5t0.5 12.5q0 7 -2 11.5t-8 4.5q-34 0 -68 -2.5t-69 -2.5h-68q-19 0 -37.5 0.5t-38.5 0.5
v307h145q29 0 58 -2t58 -2q8 0 8 8v27l-8 8h-261v281h145q31 0 62 -2t63 -2q3 0 6 2t3 6v27l-9 8h-306l-7 -8q1 -174 1 -345v-345l7 -8q79 0 158.5 -0.5t159.5 -2.5z" />
    <glyph glyph-name="Edieresis" unicode="&#xcb;" horiz-adv-x="434" 
d="M317 749v44l-8 8h-43l-8 -8v-44l8 -8h43zM145 749v45l-8 8h-43l-8 -8v-45l8 -8h43zM383 5q0 4 0.5 10.5t0 13t-2.5 11t-7 4.5q-34 0 -68 -2.5t-68 -2.5h-69q-19 0 -38 0.5t-38 0.5v307h145q29 0 57.5 -2t57.5 -2q9 0 9 8v27l-8 8h-261v281h145q32 0 62.5 -2t62.5 -2
q8 0 8 8v27l-7 8h-306l-8 -8q1 -345 0 -690l8 -8q80 0 158.5 -0.5t158.5 -2.5z" />
    <glyph glyph-name="Igrave" unicode="&#xcc;" horiz-adv-x="272" 
d="M222 720q0 1 -8.5 17t-21 39.5t-27.5 51t-28.5 52t-23.5 42.5t-12 23l-7 4h-35q-2 0 -5.5 -1.5t-3.5 -4.5q0 -2 9.5 -17.5t24 -39t32 -51t33 -52t27 -43t14.5 -23.5l7 -4q2 0 6 -0.5t8.5 0t7.5 2t3 5.5zM189 8v690l-8 8h-26l-8 -8v-690l8 -8h26z" />
    <glyph glyph-name="Iacute" unicode="&#xcd;" horiz-adv-x="293" 
d="M243 923q0 7 -8 7h-35l-7 -3q-3 -5 -15 -21.5t-28 -39.5t-33.5 -48t-32.5 -46.5t-24.5 -36.5t-9.5 -16q0 -8 8 -8h18l5 3q4 5 17.5 21.5t31.5 39t38 48t36.5 47t27.5 36.5t11 17zM169 8v690l-7 8h-27l-8 -8v-690l8 -8h27z" />
    <glyph glyph-name="Icircumflex" unicode="&#xce;" horiz-adv-x="515" 
d="M465 722q0 2 -12 14.5t-30 31t-39.5 40t-41 40.5t-34 33.5l-18.5 18.5q-4 2 -6 2h-51l-180 -174l-2 -6q-1 -3 2 -5t6 -2h28q44 39 86 79t85 80l172 -159q8 0 20 -0.5t15 7.5zM280 8v690l-8 8h-27l-8 -8v-690l8 -8h27z" />
    <glyph glyph-name="Idieresis" unicode="&#xcf;" horiz-adv-x="330" 
d="M280 735v44l-7 8h-43l-8 -8v-44l8 -8h43zM108 735v45l-8 8h-43l-7 -8v-45l7 -8h43zM189 8v690l-7 8h-27l-8 -8v-690l8 -8h27z" />
    <glyph glyph-name="Eth" unicode="&#xd0;" horiz-adv-x="139" 
d="M89 276v196l-8 8h-23l-8 -9v-196l8 -8h23z" />
    <glyph glyph-name="Ntilde" unicode="&#xd1;" horiz-adv-x="638" 
d="M541 819l-13 18l-6 4q-3 0 -9.5 -7t-18 -15t-27.5 -15t-37 -7q-25 0 -50 7.5t-49.5 16t-49.5 16t-51 7.5q-8 0 -27 -6t-39 -15t-35 -19.5t-15 -19.5q0 -5 5.5 -11.5t9.5 -10.5l6 -3q2 0 10.5 7.5t21.5 16.5t29.5 16.5t34.5 7.5q25 0 49.5 -7t49.5 -15.5t50 -15.5t51 -7
q28 0 58.5 13.5t50.5 33.5zM588 8v690l-9 8h-28l-8 -8l4 -627q-112 161 -226 317.5t-229 314.5l-6 3h-28l-8 -8v-690l9 -8h26l8 8q-1 158 -1.5 313t-0.5 313q113 -160 227.5 -316.5t229.5 -314.5l6 -3h26z" />
    <glyph glyph-name="Ograve" unicode="&#xd2;" 
d="M436 738q0 1 -8.5 17t-21 39.5t-28 51t-29 52t-23.5 42.5t-13 23l-7 4h-35q-8 0 -8 -7q0 -2 9.5 -18t24 -39.5t31.5 -51t32.5 -52t27.5 -42.5t15 -23l7 -4h18q8 0 8 8zM696 360q0 80 -19 145t-58.5 110.5t-100.5 70.5t-145 25t-145 -25t-100.5 -70.5t-58.5 -110.5
t-19 -145q0 -78 19.5 -144.5t60 -116t101 -77.5t143.5 -28q81 0 141 29t100.5 78.5t60.5 116t20 142.5zM652 360h-1q0 -65 -16.5 -124.5t-51 -105t-86.5 -72.5t-124 -27q-71 0 -123.5 27t-87 72.5t-51.5 105t-17 124.5q0 69 16 126.5t49.5 99.5t86.5 65t128 23q74 0 127 -23
t86.5 -65t49 -99.5t15.5 -126.5z" />
    <glyph glyph-name="Oacute" unicode="&#xd3;" 
d="M490 941q0 8 -8 8h-35l-7 -3q-3 -5 -14.5 -21.5t-27.5 -39t-33.5 -48t-32.5 -47t-24.5 -36.5t-9.5 -16q0 -8 9 -8h17l6 3q3 4 16 21t31 40t38 48t36.5 46.5t27.5 36.5t11 16zM696 360q0 80 -19 145t-58.5 110.5t-100.5 70.5t-145 25t-145 -25t-100.5 -70.5t-58.5 -110.5
t-19 -145q0 -78 19.5 -144.5t60 -116t101 -77.5t143.5 -28q81 0 141 29t100.5 78.5t60.5 116t20 142.5zM652 360h-1q0 -65 -16.5 -124.5t-51 -105t-86.5 -72.5t-124 -27q-71 0 -123.5 27t-87 72.5t-51.5 105t-17 124.5q0 69 16 126.5t49.5 99.5t86.5 65t128 23q74 0 127 -23
t86.5 -65t49 -99.5t15.5 -126.5z" />
    <glyph glyph-name="Ocircumflex" unicode="&#xd4;" 
d="M588 724q0 2 -12 14.5t-30 31t-39.5 40t-41 40.5t-34.5 33.5t-19 18.5q-2 2 -6 2h-52l-179 -174l-2 -6q0 -7 8 -7h28q43 39 85.5 79t86.5 80l171 -159q8 0 20.5 -0.5t15.5 7.5zM696 360q0 80 -19 145t-58.5 110.5t-100.5 70.5t-145 25t-145 -25t-100.5 -70.5
t-58.5 -110.5t-19 -145q0 -78 19.5 -144.5t60 -116t101 -77.5t143.5 -28q81 0 141 29t100.5 78.5t60.5 116t20 142.5zM652 360h-1q0 -65 -16.5 -124.5t-51 -105t-86.5 -72.5t-124 -27q-71 0 -123.5 27t-87 72.5t-51.5 105t-17 124.5q0 69 16 126.5t49.5 99.5t86.5 65t128 23
q74 0 127 -23t86.5 -65t49 -99.5t15.5 -126.5z" />
    <glyph glyph-name="Otilde" unicode="&#xd5;" 
d="M556 798q-2 4 -7 11.5t-9 9.5q-2 0 -8 -7t-15.5 -15t-24 -15t-32.5 -7q-22 0 -43.5 7.5t-43.5 16t-44 16t-45 7.5q-28 0 -56.5 -17.5t-45.5 -38.5v-9q4 -5 8.5 -12.5t10.5 -7.5l7 7.5t18.5 16.5t26.5 16.5t31 7.5q22 0 44 -7t43.5 -15.5t43.5 -15.5t45 -7q26 0 52 14
t43 34zM696 360q0 80 -19 145t-58.5 110.5t-100.5 70.5t-145 25t-145 -25t-100.5 -70.5t-58.5 -110.5t-19 -145q0 -78 19.5 -144.5t60 -116t101 -77.5t143.5 -28q81 0 141 29t100.5 78.5t60.5 116t20 142.5zM652 360h-1q0 -65 -16.5 -124.5t-51 -105t-86.5 -72.5t-124 -27
q-71 0 -123.5 27t-87 72.5t-51.5 105t-17 124.5q0 69 16 126.5t49.5 99.5t86.5 65t128 23q74 0 127 -23t86.5 -65t49 -99.5t15.5 -126.5z" />
    <glyph glyph-name="Odieresis" unicode="&#xd6;" 
d="M489 748v44l-8 8h-44l-8 -8v-44l9 -8h44zM316 748v45l-8 8h-44l-7 -8v-45l8 -8h44zM696 360q0 80 -19 145t-58.5 110.5t-100.5 70.5t-145 25t-145 -25t-100.5 -70.5t-58.5 -110.5t-19 -145q0 -78 19.5 -144.5t60 -116t101 -77.5t143.5 -28q81 0 141 29t100.5 78.5
t60.5 116t20 142.5zM652 360h-1q0 -65 -16.5 -124.5t-51 -105t-86.5 -72.5t-124 -27q-71 0 -123.5 27t-87 72.5t-51.5 105t-17 124.5q0 69 16 126.5t49.5 99.5t86.5 65t128 23q74 0 127 -23t86.5 -65t49 -99.5t15.5 -126.5z" />
    <glyph glyph-name="Oslash" unicode="&#xd8;" 
d="M696 360q0 31 -5 71t-16.5 80t-31 74.5t-47.5 54.5q3 3 10 11.5t14.5 18.5t13 18.5t5.5 10.5q0 7 -8 7h-31l-6 -3l-30 -40q-39 23 -92 35.5t-98 12.5q-84 0 -145 -24.5t-101 -70.5t-59 -110.5t-19 -145.5q0 -33 4.5 -69t15 -71.5t26.5 -68t40 -57.5q-3 -4 -13 -17
t-21 -27.5t-19.5 -27t-8.5 -15.5q0 -7 8 -7h32l6 3l46 61q20 -16 45.5 -29t53.5 -22t56 -14t54 -5q81 0 141.5 28.5t100.5 78t59.5 116t19.5 143.5zM652 360h-1q0 -65 -16.5 -124.5t-50.5 -105t-86 -72.5t-124 -27q-48 0 -98.5 16t-85.5 51l382 508q21 -22 36 -52.5
t24.5 -64t14.5 -67t5 -62.5zM541 631h-1l-377 -501q-16 23 -29 51.5t-22 59t-13.5 61t-4.5 58.5q0 69 16 127t50 99.5t87 64.5t128 23q42 0 86 -9t80 -34z" />
    <glyph glyph-name="Ugrave" unicode="&#xd9;" horiz-adv-x="624" 
d="M382 730q0 1 -8 17t-20.5 39.5t-27.5 51t-28.5 52t-23.5 43t-13 23.5l-7 4h-35q-9 0 -9 -8q0 -1 9.5 -17t24 -39.5t32 -51t33 -52t27 -42.5t14.5 -23l7 -4h18q7 0 7 7zM574 676v22l-8 8h-28l-8 -8v-22q0 -106 -0.5 -212t-9.5 -212q-4 -47 -18 -87t-39.5 -69.5
t-62.5 -46.5t-88 -17q-56 0 -93.5 15.5t-61.5 44t-36.5 69.5t-16.5 92q-10 111 -10 222v223l-8 8h-28l-8 -8v-28q0 -105 1.5 -209.5t9.5 -209.5q5 -62 20 -109.5t44.5 -80.5t75 -50t111.5 -17q61 0 106 19t76 53t48 81.5t21 104.5q8 106 9.5 212t1.5 212z" />
    <glyph glyph-name="Uacute" unicode="&#xda;" horiz-adv-x="624" 
d="M432 943q0 8 -8 8h-35l-7 -3q-3 -5 -15 -21.5t-27.5 -39t-33.5 -48t-32.5 -47t-24.5 -36.5t-10 -16q0 -8 8 -8h18l6 3q3 4 16.5 21t31.5 40t38 48t36.5 46.5t27.5 36.5t11 16zM574 676v22l-8 8h-28l-8 -8v-22q0 -106 -0.5 -212t-9.5 -212q-4 -47 -18 -87t-39.5 -69.5
t-62.5 -46.5t-88 -17q-56 0 -93.5 15.5t-61.5 44t-36.5 69.5t-16.5 92q-10 111 -10 222v223l-8 8h-28l-8 -8v-28q0 -105 1.5 -209.5t9.5 -209.5q5 -62 20 -109.5t44.5 -80.5t75 -50t111.5 -17q61 0 106 19t76 53t48 81.5t21 104.5q8 106 9.5 212t1.5 212z" />
    <glyph glyph-name="Ucircumflex" unicode="&#xdb;" horiz-adv-x="624" 
d="M523 724q0 2 -12 14.5t-30 31t-39.5 39.5t-41 40.5t-34 33.5t-18.5 18q-4 2 -6 2h-52l-179 -173l-3 -6q0 -7 8 -7h29q43 39 85.5 78.5t85.5 79.5l172 -158q8 0 20 -0.5t15 7.5zM574 676v22l-8 8h-28l-8 -8v-22q0 -106 -0.5 -212t-9.5 -212q-4 -47 -18 -87t-39.5 -69.5
t-62.5 -46.5t-88 -17q-56 0 -93.5 15.5t-61.5 44t-36.5 69.5t-16.5 92q-10 111 -10 222v223l-8 8h-28l-8 -8v-28q0 -105 1.5 -209.5t9.5 -209.5q5 -62 20 -109.5t44.5 -80.5t75 -50t111.5 -17q61 0 106 19t76 53t48 81.5t21 104.5q8 106 9.5 212t1.5 212z" />
    <glyph glyph-name="Udieresis" unicode="&#xdc;" horiz-adv-x="624" 
d="M426 748v44l-7 8h-43l-8 -8v-44l8 -8h43zM254 748v45l-8 8h-43l-7 -8v-45l7 -8h43zM574 676v22l-8 8h-28l-8 -8v-22q0 -106 -0.5 -212t-9.5 -212q-4 -47 -18 -87t-39.5 -69.5t-62.5 -46.5t-88 -17q-56 0 -93.5 15.5t-61.5 44t-36.5 69.5t-16.5 92q-10 111 -10 222v223
l-8 8h-28l-8 -8v-28q0 -105 1.5 -209.5t9.5 -209.5q5 -62 20 -109.5t44.5 -80.5t75 -50t111.5 -17q61 0 106 19t76 53t48 81.5t21 104.5q8 106 9.5 212t1.5 212z" />
    <glyph glyph-name="germandbls" unicode="&#xdf;" horiz-adv-x="454" 
d="M404 139q0 51 -12.5 83.5t-31.5 53.5t-41 35t-41 28t-31.5 31.5t-12.5 46.5q0 28 13.5 44.5t29 31t29 32.5t13.5 50q0 27 -10.5 51.5t-28.5 43t-42 30t-51 11.5q-41 0 -67 -13.5t-42 -36.5t-22 -54t-6 -67v-532l9 -8h27l8 8v532q0 24 3.5 48t14 43t29 31t47.5 12
q18 0 34 -9t28 -23.5t19.5 -32t7.5 -34.5q0 -22 -13.5 -36.5t-29 -30t-29 -36.5t-13.5 -55q0 -41 12.5 -65t31.5 -40t41 -28.5t41 -30t31.5 -44t12.5 -70.5q0 -47 -29 -77.5t-77 -30.5q-15 0 -29 4t-27 9t-26.5 9.5t-27.5 6.5l-7 -8v-31l6 -8q26 -10 54.5 -14.5t57.5 -4.5
q66 0 106.5 39t40.5 106z" />
    <glyph glyph-name="agrave" unicode="&#xe0;" horiz-adv-x="448" 
d="M305 558q0 1 -8.5 17t-21 39.5t-27.5 51t-28.5 52t-23.5 43t-13 23.5l-7 4h-35q-8 0 -8 -8q0 -1 9.5 -17t24 -39.5t32 -51t33 -52t27 -42.5t14.5 -23l7 -4q4 0 14.5 -0.5t10.5 7.5zM398 8v332q0 42 -11 68.5t-31.5 42.5t-50.5 22t-68 6q-18 0 -38.5 -2.5t-41 -7.5
t-40 -13t-34.5 -18l-3 -7q0 -3 -0.5 -9t0 -13t2 -12t5.5 -5q2 0 15.5 8t34 17.5t47 17.5t54.5 8q55 0 87 -21.5t32 -81.5v-54q-28 1 -62 1q-33 0 -67 -3t-66 -11.5t-57 -25.5t-40 -43.5t-15 -66.5q0 -64 40 -103.5t104 -39.5q57 0 98 28t66 78v-92l8 -8h24zM356 252h-1
q0 -13 -0.5 -26t-1.5 -26q-3 -33 -15 -63.5t-32 -54.5t-48.5 -38t-64.5 -14q-22 0 -40 9t-31 23.5t-20 34t-7 40.5q0 37 16.5 60t42 36t57 17t62.5 4h41t42 -2z" />
    <glyph glyph-name="aacute" unicode="&#xe1;" horiz-adv-x="448" 
d="M341 764q0 6 -8 6h-35l-7 -3q-3 -5 -14.5 -21.5t-27.5 -39t-33.5 -48t-32.5 -47t-24.5 -36.5t-9.5 -16q0 -8 9 -8h17l6 3q4 5 17 21.5t31 39.5t37.5 48t36 47t27.5 37t11 17zM398 8v332q0 42 -11 68.5t-31.5 42.5t-50.5 22t-68 6q-18 0 -38.5 -2.5t-41 -7.5t-40 -13
t-34.5 -18l-3 -7q0 -3 -0.5 -9t0 -13t2 -12t5.5 -5q2 0 15.5 8t34 17.5t47 17.5t54.5 8q55 0 87 -21.5t32 -81.5v-54q-28 1 -62 1q-33 0 -67 -3t-66 -11.5t-57 -25.5t-40 -43.5t-15 -66.5q0 -64 40 -103.5t104 -39.5q57 0 98 28t66 78v-92l8 -8h24zM356 252h-1
q0 -13 -0.5 -26t-1.5 -26q-3 -33 -15 -63.5t-32 -54.5t-48.5 -38t-64.5 -14q-22 0 -40 9t-31 23.5t-20 34t-7 40.5q0 37 16.5 60t42 36t57 17t62.5 4h41t42 -2z" />
    <glyph glyph-name="acircumflex" unicode="&#xe2;" horiz-adv-x="515" 
d="M465 560q0 2 -12 15t-30 31.5t-39.5 39.5t-41 40.5t-34 33.5t-18.5 18q-4 2 -6 2h-51l-180 -174l-2 -6q-2 -8 8 -8h27l172 160l172 -160q8 0 20 -1t15 9zM411 8v332q0 42 -11 68.5t-31.5 42.5t-50.5 22t-67 6q-18 0 -38.5 -2.5t-41 -7.5t-39.5 -13t-34 -18l-3 -7
q0 -3 -0.5 -9t0 -13t2 -12t5.5 -5q1 0 14 8t34 17.5t47 17.5t54 8q55 0 87 -21.5t32 -81.5v-54q-28 1 -62 1q-33 0 -67 -3t-66 -11.5t-56.5 -25.5t-39.5 -43.5t-15 -66.5q0 -64 39.5 -103.5t103.5 -39.5q57 0 99 27.5t65 78.5v-92l8 -8h25zM369 252q-1 -13 -1 -26t-1 -26
q-2 -33 -14 -64t-32.5 -54.5t-49 -37.5t-64.5 -14q-22 0 -40 9t-31 23.5t-20 34t-7 40.5q0 37 16.5 60t42 35.5t57 17t61.5 4.5h41q21 0 42 -2z" />
    <glyph glyph-name="atilde" unicode="&#xe3;" horiz-adv-x="482" 
d="M432 657q-3 5 -7 13.5t-11 8.5q-2 0 -7.5 -7t-15.5 -15.5t-23.5 -15.5t-31.5 -7q-22 0 -43.5 7.5t-43 16t-44 16t-45.5 7.5q-28 0 -56 -16t-46 -37v-11q2 -2 8 -11t7 -9q4 0 11.5 7.5t19 16.5t25.5 16.5t31 7.5q22 0 44 -7t43.5 -16t43.5 -16t45 -7q26 0 52 14t43 34z
M397 8v332q0 42 -11 68.5t-31.5 42.5t-50 22t-67.5 6q-18 0 -38.5 -2.5t-41 -7.5t-39.5 -13t-34 -18l-3 -7q0 -3 -0.5 -9t0 -13t2 -12t5.5 -5q1 0 14.5 8t34.5 17.5t47 17.5t54 8q55 0 87 -21.5t32 -81.5v-54q-28 1 -62 1q-33 0 -67 -3t-66 -11.5t-57 -25.5t-40 -43.5
t-15 -66.5q0 -64 40 -103.5t104 -39.5q56 0 98 27.5t66 78.5v-92l8 -8h25zM356 252h-1q-1 -13 -1 -26t-1 -26q-2 -33 -14 -64t-32.5 -54.5t-49 -37.5t-64.5 -14q-22 0 -40 9t-31 23.5t-20 34t-7 40.5q0 37 16.5 60t42 35.5t57.5 17t62 4.5h41t42 -2z" />
    <glyph glyph-name="adieresis" unicode="&#xe4;" horiz-adv-x="448" 
d="M342 575v44l-9 8h-43l-7 -8v-44l8 -8h43zM170 575v45l-8 8h-44l-7 -8v-45l8 -8h44zM398 8v332q0 42 -11 68.5t-31.5 42.5t-50.5 22t-68 6q-18 0 -38.5 -2.5t-41 -7.5t-40 -13t-34.5 -18l-3 -7q0 -3 -0.5 -9t0 -13t2 -12t5.5 -5q2 0 15.5 8t34 17.5t47 17.5t54.5 8
q55 0 87 -21.5t32 -81.5v-54q-28 1 -62 1q-33 0 -67 -3t-66 -11.5t-57 -25.5t-40 -43.5t-15 -66.5q0 -64 40 -103.5t104 -39.5q57 0 98 28t66 78v-92l8 -8h24zM356 252h-1q0 -13 -0.5 -26t-1.5 -26q-3 -33 -15 -63.5t-32 -54.5t-48.5 -38t-64.5 -14q-22 0 -40 9t-31 23.5
t-20 34t-7 40.5q0 37 16.5 60t42 36t57 17t62.5 4h41t42 -2z" />
    <glyph glyph-name="aring" unicode="&#xe5;" horiz-adv-x="448" 
d="M322 583q0 33 -23 55.5t-56 22.5q-32 0 -55.5 -22.5t-23.5 -55.5q0 -34 22.5 -56.5t57.5 -22.5q33 0 55.5 23t22.5 56zM398 8v332q0 42 -11 68.5t-31.5 42.5t-50.5 22t-68 6q-18 0 -38.5 -2.5t-41 -7.5t-40 -13t-34.5 -18l-3 -7q0 -3 -0.5 -9t0 -13t2 -12t5.5 -5
q2 0 15.5 8t34 17.5t47 17.5t54.5 8q55 0 87 -21.5t32 -81.5v-54q-28 1 -62 1q-33 0 -67 -3t-66 -11.5t-57 -25.5t-40 -43.5t-15 -66.5q0 -64 40 -103.5t104 -39.5q57 0 98 28t66 78v-92l8 -8h24zM289 583h-1q0 -20 -12 -33.5t-33 -13.5q-20 0 -32.5 13.5t-12.5 33.5
t13 33.5t33 13.5t32.5 -13.5t12.5 -33.5zM356 252q-1 -13 -1.5 -26t-1.5 -26q-3 -33 -15 -63.5t-32 -54.5t-48.5 -38t-64.5 -14q-22 0 -40 9t-31 23.5t-20 34t-7 40.5q0 37 16.5 60t42 36t57 17t62.5 4h41t42 -2z" />
    <glyph glyph-name="ae" unicode="&#xe6;" horiz-adv-x="800" 
d="M750 293q0 42 -13 76.5t-37 59.5t-58 38.5t-77 13.5q-54 0 -99.5 -23.5t-77.5 -68.5q-8 22 -24 39t-36.5 29t-43.5 18t-45 6q-39 0 -83.5 -14.5t-76.5 -37.5l-3 -6q0 -3 -0.5 -8t0 -10t2 -9t5.5 -4q2 0 15.5 8.5t35.5 18t49 18t56 8.5q54 0 83.5 -24t29.5 -81v-54
q-43 4 -95.5 3t-98.5 -15t-77 -46.5t-31 -91.5q0 -31 10 -57t28 -45t43.5 -29.5t57.5 -10.5q64 0 113 36.5t66 98.5q25 -68 80 -101.5t126 -33.5q18 0 38 2.5t40.5 7t40 11.5t34.5 16l3 7q0 2 0.5 8t0.5 12q0 7 -1.5 12t-5.5 5q-1 0 -14.5 -7t-34.5 -15.5t-47.5 -15.5
t-53.5 -7q-45 0 -78.5 15t-56.5 42t-34.5 63.5t-11.5 78.5v22q88 -1 173.5 0t173.5 5l8 8q1 8 1.5 15t0.5 14zM708 291q-158 -6 -315 -6q3 32 18 61t38.5 51t53.5 35t62 13q35 0 61 -12t43.5 -33t27 -49t11.5 -60zM351 252q-1 -39 -8 -79t-24.5 -71.5t-49 -51.5t-80.5 -20
q-46 0 -72 31t-26 75q0 37 16.5 60.5t42 36.5t57 17.5t61.5 4.5q42 0 83 -3z" />
    <glyph glyph-name="ccedilla" unicode="&#xe7;" horiz-adv-x="479" 
d="M427 38q0 8 1 20.5t-8 16.5l-14 -7t-35.5 -15.5t-49 -15.5t-55.5 -7q-48 0 -81 18t-54 48t-30.5 69.5t-9.5 82.5q0 42 10.5 78.5t32.5 62.5t54.5 41t77.5 15q22 0 45.5 -5t43.5 -11.5t34 -11.5t18 -5q6 0 6 7v31l-5 7q-32 12 -70 18t-72 6q-54 0 -94.5 -16.5t-67.5 -47.5
t-40.5 -74t-13.5 -95q0 -53 10.5 -98.5t35 -79t63.5 -54t96 -22.5q-5 -10 -9 -20.5t-4 -21.5q0 -7 5.5 -12.5t13 -9.5t16 -7t13.5 -5l-1 1q6 -2 14 -5t15.5 -7.5t12.5 -10.5t5 -13q0 -20 -15.5 -27t-32.5 -7q-13 0 -24.5 3.5t-20.5 8t-15.5 8t-8.5 3.5q-6 0 -6 -8v-28l3 -7
q16 -8 35.5 -12t36.5 -4t34 4t30 12.5t21 22t8 33.5q0 14 -6.5 24.5t-17 19t-22.5 14t-24 8.5h1l-36 12q0 8 3 16t7 16q32 2 70 11t67 25z" />
    <glyph glyph-name="egrave" unicode="&#xe8;" horiz-adv-x="492" 
d="M331 558q0 1 -8 17t-20.5 39.5t-27.5 51t-28.5 52t-23.5 43t-13 23.5l-7 4h-35q-9 0 -9 -8q0 -1 9.5 -17t24 -39.5t32 -51t33 -52t27 -42.5t14.5 -23l7 -4q5 0 15 -0.5t10 7.5zM442 252q0 45 -8.5 86t-28.5 73t-54.5 51t-86.5 19t-92 -17t-67 -47t-41 -72t-14 -92
q0 -58 11 -105.5t36 -81.5t66.5 -53t103.5 -19q18 0 38 2.5t40 7t39.5 11.5t34.5 16l4 7q0 3 0.5 9t0 12t-2 11t-5.5 5q-2 0 -15.5 -7t-34.5 -15.5t-46.5 -15.5t-52.5 -7q-47 0 -80 16t-54 43.5t-31 65t-10 81.5q86 0 171 2.5t171 5.5zM400 281q-70 -5 -139.5 -6.5
t-139.5 -1.5h-29q1 37 13.5 69t35 54.5t54 35.5t69.5 13q34 0 59.5 -14t42 -37.5t25 -53t9.5 -59.5z" />
    <glyph glyph-name="eacute" unicode="&#xe9;" horiz-adv-x="492" 
d="M374 764q0 6 -8 6h-35l-7 -3q-3 -5 -15 -21.5t-28 -39t-33.5 -48t-32.5 -47t-24.5 -36t-9.5 -16.5q0 -8 8 -8h18l6 3q4 5 17.5 21.5t31 39.5t37.5 48t36.5 47t27.5 37t11 17zM442 252q0 45 -8.5 86t-28.5 73t-54.5 51t-86.5 19t-92 -17t-67 -47t-41 -72t-14 -92
q0 -58 11 -105.5t36 -81.5t66.5 -53t103.5 -19q18 0 38 2.5t40 7t39.5 11.5t34.5 16l4 7q0 3 0.5 9t0 12t-2 11t-5.5 5q-2 0 -15.5 -7t-34.5 -15.5t-46.5 -15.5t-52.5 -7q-47 0 -80 16t-54 43.5t-31 65t-10 81.5q86 0 171 2.5t171 5.5zM400 281q-70 -5 -139.5 -6.5
t-139.5 -1.5h-29q1 37 13.5 69t35 54.5t54 35.5t69.5 13q34 0 59.5 -14t42 -37.5t25 -53t9.5 -59.5z" />
    <glyph glyph-name="ecircumflex" unicode="&#xea;" horiz-adv-x="524" 
d="M474 560q0 2 -12 15t-30 31.5t-39.5 39.5t-41 40.5t-34 33.5t-18.5 18q-4 2 -6 2h-52l-179 -174l-3 -6q0 -8 8 -8h28l172 160l171 -160q8 0 20.5 -1t15.5 9zM441 252q0 45 -8.5 86t-28.5 73t-54.5 51t-86.5 19t-92 -17t-67 -47t-40.5 -72t-13.5 -92q0 -57 10.5 -105
t36 -82t66.5 -53t103 -19q18 0 38 2.5t40 7t39.5 11.5t34.5 16l4 7q0 3 0.5 9t0 12t-2 11t-5.5 5q-1 0 -15 -7t-35 -15.5t-47 -15.5t-52 -7q-47 0 -80 16t-54 44t-30.5 65.5t-10.5 80.5q86 0 171 2.5t171 5.5zM400 281q-70 -5 -140 -6.5t-140 -1.5h-29q1 37 13.5 69t35 54.5
t53.5 35.5t70 13q35 0 60 -14t41.5 -37.5t25 -53t10.5 -59.5z" />
    <glyph glyph-name="edieresis" unicode="&#xeb;" horiz-adv-x="492" 
d="M364 575v44l-8 8h-43l-7 -8v-44l7 -8h43zM193 575v45l-8 8h-44l-7 -8v-45l7 -8h44zM442 252q0 45 -8.5 86t-28.5 73t-54.5 51t-86.5 19t-92 -17t-67 -47t-41 -72t-14 -92q0 -58 11 -105.5t36 -81.5t66.5 -53t103.5 -19q18 0 38 2.5t40 7t39.5 11.5t34.5 16l4 7q0 3 0.5 9
t0 12t-2 11t-5.5 5q-2 0 -15.5 -7t-34.5 -15.5t-46.5 -15.5t-52.5 -7q-47 0 -80 16t-54 43.5t-31 65t-10 81.5q86 0 171 2.5t171 5.5zM400 281q-70 -5 -139.5 -6.5t-139.5 -1.5h-29q1 37 13.5 69t35 54.5t54 35.5t69.5 13q34 0 59.5 -14t42 -37.5t25 -53t9.5 -59.5z" />
    <glyph glyph-name="igrave" unicode="&#xec;" horiz-adv-x="272" 
d="M222 558q0 1 -8 17t-20.5 39.5t-27.5 51t-28.5 52t-23.5 43t-13 23.5l-7 4h-35q-9 0 -9 -8q0 -1 9.5 -17t24 -39.5t32 -51t33 -52t27 -42.5t14.5 -23l7 -4q5 0 15 -0.5t10 7.5zM168 8v458l-8 8h-26l-8 -8v-458l8 -8h26z" />
    <glyph glyph-name="iacute" unicode="&#xed;" horiz-adv-x="293" 
d="M243 764q0 6 -8 6h-35l-7 -3q-3 -5 -15 -21.5t-27.5 -39t-33.5 -48t-32.5 -47t-24.5 -36.5t-10 -16q0 -8 9 -8h18l5 3q4 5 17.5 21.5t31 39.5t37.5 48t36.5 47t27.5 37t11 17zM158 8v458l-8 8h-26l-8 -8v-458l9 -8h26z" />
    <glyph glyph-name="icircumflex" unicode="&#xee;" horiz-adv-x="515" 
d="M465 560q0 2 -12 15t-30 31.5t-39.5 39.5t-41 40.5t-34.5 33.5t-19 18q-2 2 -6 2h-51l-180 -174l-2 -6q0 -8 9 -8h27l172 160l172 -160q8 0 20 -1t15 9zM258 8v458l-8 8h-26l-8 -8v-458l9 -8h26z" />
    <glyph glyph-name="idieresis" unicode="&#xef;" horiz-adv-x="331" 
d="M281 575v44l-8 8h-43l-8 -8v-44l9 -8h43zM108 575v45l-8 8h-43l-7 -8v-45l8 -8h43zM183 8v458l-9 8h-27l-7 -8v-458l8 -8h27z" />
    <glyph glyph-name="eth" unicode="&#xf0;" horiz-adv-x="164" 
d="M114 2v48l-9 8h-47l-8 -8v-48l9 -8h47z" />
    <glyph glyph-name="ntilde" unicode="&#xf1;" horiz-adv-x="494" 
d="M444 657q-3 5 -7 13.5t-10 8.5q-2 0 -7.5 -7t-16 -15.5t-24.5 -15.5t-32 -7q-22 0 -43.5 7.5t-43 16t-44 16t-45.5 7.5q-28 0 -56 -16t-46 -37v-11q2 -2 8 -11t7 -9q4 0 11.5 7.5t19 16.5t25.5 16.5t31 7.5q22 0 44 -7t44 -16t43.5 -16t44.5 -7q26 0 52.5 14t43.5 34z
M440 8v305q0 44 -13.5 75.5t-38.5 51.5t-59 29.5t-76 9.5q-49 0 -92 -21.5t-71 -63.5l-3 72l-8 8h-21l-8 -8v-458l9 -8h25l8 8v314q0 26 17 48t41.5 38.5t52.5 25.5t51 9q30 0 57 -8t46.5 -24.5t31 -40.5t11.5 -57v-305l8 -8h25z" />
    <glyph glyph-name="ograve" unicode="&#xf2;" horiz-adv-x="543" 
d="M349 558q0 1 -8.5 17t-21 39.5t-27.5 51t-28.5 52t-23.5 43t-13 23.5l-7 4h-35q-8 0 -8 -8q0 -1 9.5 -17t24 -39.5t32 -51t33 -52t27 -42.5t14.5 -23l7 -4q4 0 14.5 -0.5t10.5 7.5zM493 239q0 55 -12.5 100t-39 76.5t-68.5 48.5t-101 17t-101 -17t-69 -48.5t-39.5 -76
t-12.5 -100.5q0 -53 13.5 -98t41.5 -77.5t70 -51t98 -18.5t97.5 18.5t68.5 51t40.5 77.5t13.5 98zM452 239h-1q0 -42 -10.5 -80t-32.5 -66.5t-56 -45.5t-80 -17t-80 17t-56.5 45.5t-33.5 66.5t-11 80q0 44 10.5 82t32.5 65.5t56.5 43t82.5 15.5t82 -15.5t55.5 -43.5
t31.5 -65.5t10 -81.5z" />
    <glyph glyph-name="oacute" unicode="&#xf3;" horiz-adv-x="543" 
d="M398 764q0 6 -8 6h-35l-7 -3q-3 -5 -15 -21.5t-28 -39t-33.5 -48t-32.5 -47t-24.5 -36t-9.5 -16.5q0 -8 9 -8h18l6 3q4 5 17 21.5t31 39.5t37.5 48t36 47t27.5 37t11 17zM493 239q0 55 -12.5 100t-39 76.5t-68.5 48.5t-101 17t-101 -17t-69 -48.5t-39.5 -76t-12.5 -100.5
q0 -53 13.5 -98t41.5 -77.5t70 -51t98 -18.5t97.5 18.5t68.5 51t40.5 77.5t13.5 98zM452 239h-1q0 -42 -10.5 -80t-32.5 -66.5t-56 -45.5t-80 -17t-80 17t-56.5 45.5t-33.5 66.5t-11 80q0 44 10.5 82t32.5 65.5t56.5 43t82.5 15.5t82 -15.5t55.5 -43.5t31.5 -65.5t10 -81.5z
" />
    <glyph glyph-name="ocircumflex" unicode="&#xf4;" horiz-adv-x="543" 
d="M466 560q0 2 -12 15t-30 31.5t-39.5 39.5t-41 40.5t-34 33.5t-18.5 18q-4 2 -6 2h-52l-180 -174l-2 -6q-2 -8 8 -8h28q43 41 86 80.5t86 79.5l171 -160q8 0 20.5 -1t15.5 9zM493 239q0 55 -12.5 100t-39 76.5t-68 48.5t-100.5 17t-101 -17t-69 -48.5t-39.5 -76
t-12.5 -100.5q0 -53 13.5 -98t41.5 -77.5t69.5 -51t97.5 -18.5t97.5 18.5t68.5 51t40.5 77.5t13.5 98zM452 239q0 -42 -10.5 -80t-32.5 -66.5t-56 -45.5t-80 -17t-80 17t-56.5 45.5t-33.5 66.5t-11 80q0 44 10.5 82t32 65.5t56 43t82.5 15.5t82 -15.5t55.5 -43.5t31.5 -65.5
t10 -81.5z" />
    <glyph glyph-name="otilde" unicode="&#xf5;" horiz-adv-x="543" 
d="M457 657q-3 5 -7 13.5t-10 8.5q-2 0 -7.5 -7t-16 -15.5t-24.5 -15.5t-32 -7q-22 0 -43.5 7.5t-43 16t-44 16t-45.5 7.5q-28 0 -56 -16.5t-46 -36.5v-12l13 -17l10 1q14 17 35.5 31t43.5 14t44 -7t44 -16t43.5 -16t44.5 -7q26 0 52.5 14t43.5 34zM493 239q0 55 -12.5 100
t-39 76.5t-68.5 48.5t-101 17t-101 -17t-69 -48.5t-39.5 -76t-12.5 -100.5q0 -53 13.5 -98t41.5 -77.5t70 -51t98 -18.5t97.5 18.5t68.5 51t40.5 77.5t13.5 98zM452 239h-1q0 -42 -10.5 -80t-32.5 -66.5t-56 -45.5t-80 -17t-80 17t-56.5 45.5t-33.5 66.5t-11 80
q0 44 10.5 82t32.5 65.5t56.5 43t82.5 15.5t82 -15.5t55.5 -43.5t31.5 -65.5t10 -81.5z" />
    <glyph glyph-name="odieresis" unicode="&#xf6;" horiz-adv-x="543" 
d="M383 575v44l-8 8h-43l-8 -8v-44l9 -8h43zM210 575v45l-7 8h-44l-8 -8v-45l9 -8h44zM493 239q0 55 -12.5 100t-39 76.5t-68.5 48.5t-101 17t-101 -17t-69 -48.5t-39.5 -76t-12.5 -100.5q0 -53 13.5 -98t41.5 -77.5t70 -51t98 -18.5t97.5 18.5t68.5 51t40.5 77.5t13.5 98z
M452 239h-1q0 -42 -10.5 -80t-32.5 -66.5t-56 -45.5t-80 -17t-80 17t-56.5 45.5t-33.5 66.5t-11 80q0 44 10.5 82t32.5 65.5t56.5 43t82.5 15.5t82 -15.5t55.5 -43.5t31.5 -65.5t10 -81.5z" />
    <glyph glyph-name="divide" unicode="&#xf7;" horiz-adv-x="409" 
d="M234 462v48l-8 8h-47l-8 -8v-48l9 -7h47zM359 351v24l-8 8h-294l-7 -8v-24l8 -8h294zM233 219v48l-7 8h-47l-8 -8v-48l9 -8h47z" />
    <glyph glyph-name="oslash" unicode="&#xf8;" horiz-adv-x="543" 
d="M493 239q0 21 -3 47t-9.5 51.5t-18 48.5t-29.5 38q3 3 8.5 9.5t11.5 13.5t10.5 13.5t4.5 9.5q0 7 -8 7h-26l-6 -3l-21 -28q-27 17 -65 26t-70 9q-59 0 -101 -17t-69 -48.5t-39.5 -76t-12.5 -100.5q0 -21 3 -46t10 -49.5t18.5 -46.5t28.5 -37q-2 -3 -8.5 -10.5t-13 -16.5
t-11.5 -16.5t-5 -9.5q0 -7 7 -7h26l6 3q5 8 12 16l14 16q28 -18 65.5 -29.5t70.5 -11.5q56 0 97.5 18.5t68.5 51.5t40.5 77.5t13.5 97.5zM452 239h-1q0 -42 -10.5 -80t-32.5 -66.5t-56 -45.5t-80 -17q-28 0 -59 8t-53 28q63 81 124.5 162t124.5 162q21 -30 32 -72.5
t11 -78.5zM382 414h-1l-247 -322q-20 30 -31.5 71t-11.5 76q0 44 10.5 82t32.5 65.5t56.5 43t82.5 15.5q28 0 57 -7t52 -24z" />
    <glyph glyph-name="ugrave" unicode="&#xf9;" horiz-adv-x="483" 
d="M324 558q0 1 -8 17t-20.5 39.5t-27.5 51t-28.5 52t-23.5 43t-13 23.5l-7 4h-35q-9 0 -9 -8q0 -1 9.5 -17t24 -39.5t32 -51t33 -52t27 -42.5t14.5 -23l7 -4q5 0 15 -0.5t10 7.5zM433 8v458l-8 8h-26l-7 -8q0 -67 -0.5 -133t-0.5 -133q0 -35 -14 -66t-37 -54t-54.5 -36.5
t-65.5 -13.5q-36 0 -60.5 13t-40 35.5t-22 51t-6.5 60.5l3 276q-2 7 -7 8h-26l-8 -8q-3 -138 -3 -276q0 -41 9.5 -77t30 -62.5t53 -41.5t77.5 -15q59 0 103 27.5t70 78.5l1 -92l8 -8h23z" />
    <glyph glyph-name="uacute" unicode="&#xfa;" horiz-adv-x="483" 
d="M364 764q0 6 -8 6h-35l-7 -3q-3 -5 -15 -21.5t-27.5 -39t-33.5 -48t-32.5 -47t-24.5 -36.5t-10 -16q0 -8 8 -8h18l6 3q4 5 17.5 21.5t31 39.5t37.5 48t36.5 47t27.5 37t11 17zM433 8v458l-8 8h-26l-7 -8q0 -67 -0.5 -133t-0.5 -133q0 -35 -14 -66t-37 -54t-54.5 -36.5
t-65.5 -13.5q-36 0 -60.5 13t-40 35.5t-22 51t-6.5 60.5l3 276q-2 7 -7 8h-26l-8 -8q-3 -138 -3 -276q0 -41 9.5 -77t30 -62.5t53 -41.5t77.5 -15q59 0 103 27.5t70 78.5l1 -92l8 -8h23z" />
    <glyph glyph-name="ucircumflex" unicode="&#xfb;" horiz-adv-x="514" 
d="M464 560q0 2 -12 15t-30 31.5t-39 39.5l-40.5 40.5t-34 33.5t-18.5 18q-4 2 -6 2h-51l-180 -174l-2 -6q-2 -8 8 -8h27l172 160l171 -160q8 0 20 -1t15 9zM435 8v458l-8 8h-25l-8 -8q0 -67 -0.5 -133t-0.5 -133q0 -35 -13.5 -65.5t-37 -54t-54.5 -37t-65 -13.5
q-36 0 -60.5 13t-39.5 35.5t-22 51t-7 60.5q0 12 0.5 35t1.5 50.5t2 57.5t1 56q0 27 -0.5 47.5t-1.5 29.5q-2 8 -8 8h-26l-7 -8q-3 -138 -3 -276q0 -41 9.5 -77t30 -62.5t52.5 -41.5t78 -15q58 0 102 27.5t70 78.5l2 -92l8 -8h22z" />
    <glyph glyph-name="udieresis" unicode="&#xfc;" horiz-adv-x="483" 
d="M352 575v44l-7 8h-43l-8 -8v-44l8 -8h43zM181 575v45l-7 8h-44l-8 -8v-45l8 -8h44zM433 8v458l-8 8h-26l-7 -8q0 -67 -0.5 -133t-0.5 -133q0 -35 -14 -66t-37 -54t-54.5 -36.5t-65.5 -13.5q-36 0 -60.5 13t-40 35.5t-22 51t-6.5 60.5l3 276q-2 7 -7 8h-26l-8 -8
q-3 -138 -3 -276q0 -41 9.5 -77t30 -62.5t53 -41.5t77.5 -15q59 0 103 27.5t70 78.5l1 -92l8 -8h23z" />
    <glyph glyph-name="ydieresis" unicode="&#xff;" horiz-adv-x="546" 
d="M382 575v44l-8 8h-43l-8 -8v-44l8 -8h43zM209 575v45l-7 8h-44l-8 -8v-45l8 -8h44zM496 469q0 2 -3 3.5t-5 1.5h-31l-7 -5q-45 -104 -91 -206.5t-92 -206.5l-173 413l-7 5q-2 0 -8 0.5t-12.5 0t-11.5 -2t-5 -4.5q0 -2 13 -34t33 -80t44 -104.5t45 -107t37 -87.5t20 -46
q-2 -5 -10 -21.5t-18 -38.5t-21.5 -46t-21 -45t-15.5 -35.5t-6 -16.5q0 -3 3 -4t5 -1h30l7 4q4 10 19.5 43t37.5 81t48.5 106t53.5 117.5t52.5 116t45.5 100.5t32 71t12 29z" />
    <glyph glyph-name="OE" unicode="&#x152;" horiz-adv-x="1034" 
d="M983 5q0 8 1 22t-9 17q-29 -2 -57.5 -3.5t-57.5 -1.5q-42 0 -83.5 0.5t-83.5 0.5v307h150h13t21.5 -0.5t21.5 -1.5t14 -2q9 0 9 8v27l-8 8h-221v281h145q32 0 63 -2t63 -2q8 0 8 8v27l-8 8h-306l-8 -8v-131q-21 41 -50.5 69t-65 44.5t-76.5 23.5t-85 7q-84 0 -145 -25
t-100.5 -70.5t-58.5 -110.5t-19 -145q0 -77 19.5 -144t59.5 -116.5t101 -77.5t143 -28q90 0 162.5 41t114.5 122v-149l8 -8q80 0 158.5 0.5t158.5 -3.5zM650 360q0 -65 -16.5 -124.5t-50.5 -105t-86 -72.5t-124 -27q-71 0 -123.5 27t-87 72.5t-51.5 105t-17 124.5
q0 69 15.5 126.5t49.5 99.5t86.5 65t127.5 23t127.5 -23t85.5 -65t48.5 -99.5t15.5 -126.5z" />
    <glyph glyph-name="oe" unicode="&#x153;" horiz-adv-x="894" 
d="M844 252q0 44 -8.5 85t-28.5 73t-54 51.5t-86 19.5q-64 0 -116.5 -28t-78.5 -89q-14 27 -36 48.5t-48.5 36.5t-56 23.5t-59.5 8.5q-59 0 -101 -17t-69 -48.5t-39.5 -76t-12.5 -100.5q0 -53 13.5 -98t41.5 -77.5t70 -51t98 -18.5q66 0 119.5 30.5t79.5 93.5
q22 -66 77.5 -95t122.5 -29q35 0 76 10t73 27l4 7q0 3 0.5 9t0 12t-2 11t-5.5 5q-2 0 -15 -7t-33.5 -15.5t-46 -15.5t-52.5 -7q-48 0 -81 15.5t-54.5 43t-31.5 65.5t-11 82q87 2 172 3t171 5zM803 281h-1q-77 0 -154 -4t-155 -4q0 37 13.5 68.5t37.5 54.5t56 36t69 13
q36 0 61 -14t41 -36.5t23.5 -52.5t8.5 -61zM453 239h-1q0 -42 -11 -80t-33 -66.5t-56 -45.5t-80 -17t-80 16.5t-56.5 45t-33.5 66.5t-11 81q0 44 10.5 82t32.5 65.5t56.5 43t82.5 15.5t82 -15.5t56 -43t32 -65.5t10 -82z" />
    <glyph glyph-name="Scaron" unicode="&#x160;" horiz-adv-x="401" 
d="M351 -70q0 5 -7 7h-26l-7 -7q0 -51 -28.5 -87t-82.5 -36q-55 0 -83 35t-28 88l-7 7h-25q-7 -2 -7 -7q0 -72 39 -114.5t111 -42.5q35 0 63 11.5t47.5 32.5t30 49.5t10.5 63.5z" />
    <glyph glyph-name="Ydieresis" unicode="&#x178;" horiz-adv-x="511" 
d="M366 748v45l-7 8h-43l-8 -8v-45l8 -8h43zM194 748v45l-7 8h-43l-8 -8v-45l8 -8h43zM461 701q0 2 -3 3.5t-5 1.5h-26l-7 -5q-42 -90 -83 -178.5t-83 -178.5l-160 357l-7 5q-2 0 -8 0.5t-12.5 0t-11.5 -1.5t-5 -4t12 -31t30.5 -69t41 -89.5t42.5 -92.5l35 -77t20 -43v-291
l7 -8h29l8 8v293q4 8 19.5 40.5t36 76t43.5 92t42.5 90.5t32 70t12.5 31z" />
    <glyph glyph-name="florin" unicode="&#x192;" horiz-adv-x="549" 
d="M499 687l-2 32l-4 6q-12 7 -32 9t-34 2q-60 0 -92 -27t-48 -68t-21.5 -90t-11.5 -93h-42q-8 -4 -8 -13q0 -8 -2 -16q0 -7 8 -9h41l-59 -411q-2 -15 -6.5 -33.5t-13 -34t-22 -26.5t-32.5 -11q-20 0 -32 8t-28 13q-8 0 -8 -8v-30l5 -7q14 -8 31 -10.5t33 -2.5q28 0 48 13
t33.5 33.5t21.5 45t12 48.5q16 103 29 206t29 207h83q8 4 8.5 12.5t0.5 16.5q1 7 -10.5 9t-27.5 2q-15 0 -29.5 -1t-20.5 -1q4 33 7.5 75t15 79t36.5 62.5t73 25.5q27 0 42.5 -10.5t20.5 -10.5q8 0 8 8z" />
    <glyph glyph-name="circumflex" unicode="&#x2c6;" horiz-adv-x="515" 
d="M465 560q0 2 -12 15t-30 31.5t-39.5 39.5t-41 40.5t-34.5 33.5t-19 18q-2 2 -6 2h-51l-180 -174l-2 -6q0 -8 9 -8h27l172 160l172 -160q8 0 20 -1t15 9z" />
    <glyph glyph-name="tilde" unicode="&#x2dc;" horiz-adv-x="526" 
d="M476 657l-12 19l-6 4q-3 0 -10 -7t-18 -16t-26.5 -16t-36.5 -7q-26 0 -50.5 7.5t-49.5 16t-50 16t-51 7.5q-8 0 -27 -5.5t-38.5 -13.5t-35 -18.5t-15.5 -19.5q0 -2 2.5 -6.5t5.5 -9t6 -8t4 -3.5q4 0 13 7.5t21.5 16.5t29 16.5t34.5 7.5q25 0 50.5 -7t50 -16t49.5 -16
t51 -7q29 0 58.5 14t49.5 34z" />
    <glyph glyph-name="endash" unicode="&#x2013;" horiz-adv-x="408" 
d="M358 353v23l-7 8h-294l-7 -8v-23l7 -8h294z" />
    <glyph glyph-name="emdash" unicode="&#x2014;" horiz-adv-x="703" 
d="M653 353v23l-9 8h-586l-8 -8v-23l9 -8h586z" />
    <glyph glyph-name="quoteleft" unicode="&#x2018;" horiz-adv-x="197" 
d="M147 761q0 8 -9 8h-18l-7 -6q-1 -4 -6 -21t-12 -40t-15 -48.5t-14.5 -47.5t-11 -36.5t-4.5 -15.5q0 -7 9 -7h35l8 5q1 5 4.5 22t8.5 39.5t11 47.5t10.5 46.5t7.5 36.5t3 17z" />
    <glyph glyph-name="quoteright" unicode="&#x2019;" horiz-adv-x="215" 
d="M165 766q0 7 -8 7h-35l-8 -6q-1 -4 -6.5 -21.5t-12.5 -40.5t-15 -49.5t-14.5 -48.5t-11 -37t-4.5 -16q0 -3 3 -5t6 -2h18l7 5q2 4 8.5 21.5t15.5 41t19 49.5t18.5 48.5t14 37.5t5.5 16z" />
    <glyph glyph-name="quotesinglbase" unicode="&#x201a;" horiz-adv-x="215" 
d="M165 117q0 8 -8 8h-35l-8 -6q-1 -4 -6.5 -21.5t-12.5 -40.5t-15 -49.5t-14.5 -48.5t-11 -37t-4.5 -16q0 -3 3 -5t6 -2h18l7 5q2 4 8.5 21.5t15.5 40.5t19 49.5t18.5 48.5t14 37t5.5 16z" />
    <glyph glyph-name="quotedblleft" unicode="&#x201c;" horiz-adv-x="297" 
d="M247 758q0 8 -8 8h-18l-7 -6q-1 -4 -6.5 -20.5l-13 -39t-15.5 -48t-15 -47t-11.5 -36t-4.5 -15.5q0 -7 8 -7h35l8 5q1 4 5 21t9.5 39t11 47.5t10.5 46.5t8.5 35.5t3.5 16.5zM149 758q0 8 -8 8h-17l-8 -6q-1 -4 -6.5 -20.5l-13 -39t-15.5 -48t-15 -47t-11.5 -36
t-4.5 -15.5q0 -7 8 -7h35l8 5q1 4 5 21t9.5 39t11 47.5t10.5 46.5t8.5 35.5t3.5 16.5z" />
    <glyph glyph-name="quotedblright" unicode="&#x201d;" horiz-adv-x="303" 
d="M253 764q0 8 -9 8h-35l-8 -6q-1 -4 -5.5 -21t-10 -40t-12.5 -49t-12.5 -48t-9 -37t-3.5 -16q0 -8 9 -8h17l8 5q1 4 7 21t14 40.5t16.5 49.5t16 48t12.5 37t5 16zM155 764q0 8 -9 8h-35l-8 -6q-1 -4 -5.5 -21t-10 -40t-12.5 -49t-12.5 -48t-9 -37t-3.5 -16q0 -8 9 -8h18
l8 5q1 4 7 21t13.5 40.5t16.5 49.5t16 48t12 37t5 16z" />
    <glyph glyph-name="quotedblbase" unicode="&#x201e;" horiz-adv-x="303" 
d="M253 113q0 8 -9 8h-35l-8 -6q-1 -4 -5.5 -21t-10 -40t-12.5 -49t-12.5 -48t-9 -37t-3.5 -16q0 -8 9 -8h17l8 5q1 4 7 21.5t14 40.5t17 49t16 48t12 37t5 16zM155 113q0 8 -9 8h-35l-8 -6q-1 -4 -5.5 -21t-10 -40t-12.5 -49t-12.5 -48t-9 -37t-3.5 -16q0 -8 9 -8h18l8 5
q1 4 7 21.5t13.5 40.5t16.5 49t16 48t12 37t5 16z" />
    <glyph glyph-name="dagger" unicode="&#x2020;" horiz-adv-x="413" 
d="M363 515v23l-9 8h-296l-8 -8v-23l9 -8h296zM224 5v747l-8 8h-28l-8 -8v-747l9 -8h28z" />
    <glyph glyph-name="daggerdbl" unicode="&#x2021;" horiz-adv-x="656" 
d="M606 620q0 5 -7 7h-26l-7 -7q0 -51 -28.5 -87t-82.5 -36q-55 0 -83 35t-28 88l-7 7h-25q-7 -2 -7 -7q0 -72 39 -114.5t111 -42.5q35 0 63 11.5t47.5 32.5t30 49.5t10.5 63.5zM369 698l-6 8h-27l-10 -8l-183 -660h-77l-10 -8l-6 -23l6 -8h196l10 8l6 23l-6 8h-76zM476 -70
q0 5 -7 7h-26l-7 -7q0 -51 -28.5 -87t-82.5 -36q-55 0 -83 35t-28 88l-7 7h-25q-7 -2 -7 -7q0 -72 39 -114.5t111 -42.5q35 0 63 11.5t47.5 32.5t30 49.5t10.5 63.5z" />
    <glyph glyph-name="bullet" unicode="&#x2022;" horiz-adv-x="257" 
d="M207 347q0 33 -23 56t-56 23t-55.5 -23t-22.5 -56q0 -34 22.5 -56t56.5 -22q33 0 55.5 22.5t22.5 55.5z" />
    <glyph glyph-name="ellipsis" unicode="&#x2026;" horiz-adv-x="681" 
d="M631 2v48l-8 8h-47l-8 -8v-48l9 -8h47zM371 2v48l-8 8h-46l-8 -8v-48l9 -8h46zM112 2v48l-8 8h-47l-7 -8v-48l8 -8h47z" />
    <glyph glyph-name="perthousand" unicode="&#x2030;" horiz-adv-x="706" 
d="M297 577q0 55 -27 86.5t-84 31.5q-58 0 -85 -31t-27 -87q0 -54 28 -87.5t84 -33.5q54 0 82.5 34.5t28.5 86.5zM519 704q0 7 -8 7h-29l-7 -4q-6 -10 -27.5 -45t-52 -86t-68.5 -112.5t-76.5 -125t-74.5 -123.5t-64 -106.5t-45 -75t-17 -29.5q0 -8 8 -8h30l7 4l27 45t52 86
t68.5 113t76 125.5t74.5 123t64 106t45 75.5t17 30zM656 111q0 55 -26 85.5t-83 30.5q-41 0 -69 -18t-37 -60q-9 42 -36.5 60t-68.5 18q-58 0 -83.5 -30t-25.5 -86q0 -52 27.5 -84.5t81.5 -32.5q41 0 69 21.5t36 61.5q8 -41 36 -62t70 -21q53 0 81 33t28 84zM262 577
q0 -36 -18.5 -62t-57.5 -26q-40 0 -58.5 25.5t-18.5 62.5q0 38 18 61.5t59 23.5t58.5 -24t17.5 -61zM616 112q0 -33 -16 -57t-53 -24q-36 0 -52.5 24t-16.5 57q0 34 16 56t53 22q38 0 53.5 -21.5t15.5 -56.5zM405 112q0 -33 -16.5 -57t-52.5 -24t-52.5 24t-16.5 57
q0 34 16 56t53 22t53 -22t16 -56z" />
    <glyph glyph-name="guilsinglleft" unicode="&#x2039;" horiz-adv-x="300" 
d="M250 208l-3 8l-156 150l156 147l3 8l-7 25l-8 6q-3 0 -16 -12t-31.5 -30t-40.5 -39.5t-41 -41t-33.5 -34.5t-19.5 -19l-2 -5q-1 -4 -0.5 -9t2.5 -8l175 -174l6 -3q4 0 7 4t4.5 9.5t2.5 10.5t2 7z" />
    <glyph glyph-name="guilsinglright" unicode="&#x203a;" horiz-adv-x="301" 
d="M251 360v11l-3 5l-176 173l-6 3q-8 -1 -11 -13t-5 -18l4 -8l158 -148l-159 -149l-2 -9l10 -24l7 -5q2 0 15 12t31.5 30t40.5 40l41.5 41.5l34 34l18.5 18.5q0 2 1 3t1 3z" />
    <glyph glyph-name="currency" unicode="&#x20ac;" horiz-adv-x="709" 
d="M658 44q0 2 0.5 7.5t0 11.5t-2 10.5t-4.5 4.5t-5 -1q-56 -17 -107 -31.5t-110 -14.5q-114 0 -187.5 60.5t-96.5 171.5h445l7 8v24l-7 8h-452q-3 28 -3 57q0 32 3 64h452l7 8v24l-7 8h-445q12 56 37 96t61.5 65.5t83.5 37t102 11.5q56 0 102 -11t98 -28q2 -1 3 -0.5t3 0.5
q6 0 6 7v31l-5 6q-50 20 -102 26t-105 6q-65 0 -120 -13.5t-97.5 -43t-71 -76.5t-40.5 -114h-44l-7 -8v-24l7 -8h38q-6 -61 0 -121h-38l-7 -8v-24l7 -8h43q23 -134 109 -201.5t221 -67.5q23 0 53 3t60.5 8.5t59.5 13.5t50 18z" />
    <glyph glyph-name="trademark" unicode="&#x2122;" horiz-adv-x="759" 
d="M709 353v345l-7 8h-31l-7 -4q-37 -72 -73.5 -143.5t-74.5 -143.5l-156 287l-6 4h-27l-8 -8v-345l8 -8h26l7 8v271l142 -275l7 -4h11l7 4l141 280v-276l8 -8h26zM305 672v26l-8 8h-239l-7 -8q0 -3 -0.5 -9t-0.5 -12q0 -5 2 -9t7 -4q24 0 48.5 1.5t48.5 1.5v-314l8 -8h25
l8 8v314h38q3 0 14.5 -1t24 -1.5t22 1t9.5 6.5z" />
    <glyph glyph-name="notequal" unicode="&#xe000;" horiz-adv-x="408" 
d="M358 275v23l-7 8h-166l70 123h96l7 8v23l-7 8h-75q3 4 11.5 18t17.5 30t16 29.5t7 16.5t-3 4.5t-5 1.5h-27l-7 -4q-14 -24 -27.5 -48t-27.5 -48h-174l-7 -8v-23l7 -8h153l-71 -123h-82l-7 -8v-23l7 -8h60q-3 -5 -11.5 -20t-18 -31.5t-17 -31t-7.5 -17.5t3 -4.5t5 -1.5h28
l7 4q15 26 29 51t29 51h187z" />
    <glyph glyph-name="infinity" unicode="&#xe001;" horiz-adv-x="751" 
d="M701 366q0 32 -11 59.5t-30.5 47.5t-47 31t-59.5 11q-27 0 -52.5 -11t-48.5 -28t-43 -38t-36 -40q-14 16 -35.5 36.5t-46 38.5t-50 30t-47.5 12q-33 0 -59.5 -11.5t-45 -31.5t-29 -47t-10.5 -59q0 -68 37 -109.5t107 -41.5q25 0 50.5 10.5t48.5 27t42.5 36.5t34.5 39
q15 -18 35.5 -38t44 -36.5t49 -27.5t49.5 -11q68 0 110.5 41t42.5 110zM659 366q0 -24 -8.5 -44.5t-23 -35.5t-35 -23.5t-44.5 -8.5q-22 0 -44 11t-42 27.5t-36.5 36t-28.5 36.5q12 14 30.5 33t40 36.5t44 29.5t41.5 12q22 0 41 -9t33.5 -24.5t23 -35.5t8.5 -41zM345 362
q-12 -17 -29 -35.5t-37 -35t-41.5 -27t-43.5 -10.5q-51 0 -76.5 32t-25.5 80q0 21 7.5 41t21 35.5t32 24.5t41.5 9q21 0 43 -12t41.5 -29.5t37 -37t29.5 -35.5z" />
    <glyph glyph-name="lessequal" unicode="&#xe002;" horiz-adv-x="423" 
d="M372 253q0 5 -4 8q-27 18 -60.5 38t-69.5 39.5t-71 39t-65 36.5q7 4 30 17t53 30t63 35.5t60.5 35t45.5 28t18 13.5q0 1 -2.5 5.5t-5.5 9t-6.5 8t-5.5 3.5q-3 0 -24 -11.5t-52 -29.5t-67 -39.5t-68.5 -40.5t-56.5 -33.5t-30 -18.5l-4 -7v-10l4 -7q6 -4 30 -18.5t56.5 -34
t68.5 -40.5t67 -39t52.5 -30t23.5 -12t5.5 3.5t6.5 7.5t5.5 8t2.5 6zM373 137v23l-8 8h-294l-8 -8v-23l8 -8h294z" />
    <glyph glyph-name="greaterequal" unicode="&#xe003;" horiz-adv-x="423" 
d="M373 409v10l-4 7q-7 4 -30.5 18.5t-56 33.5t-68.5 40.5t-67 39.5t-52.5 29.5t-23.5 11.5q-3 0 -6 -3q-2 -3 -7.5 -11.5t-5.5 -11.5t4 -7q63 -42 131 -78t134 -74q-7 -4 -29.5 -17t-52.5 -30t-63 -36t-60.5 -35.5t-45.5 -28t-18 -13.5t2.5 -6t5.5 -8.5t6.5 -8t5.5 -3.5
t23.5 12t52 30t67 39t68.5 40.5t55.5 34t30.5 18.5zM359 137v23l-8 8h-293l-8 -8v-23l8 -8h293z" />
    <glyph glyph-name="summation" unicode="&#xe004;" horiz-adv-x="503" 
d="M453 5v27l-7 8q-82 -1 -164 -1h-164l233 323l1 9q-51 74 -101 147.5t-101 148.5h114q14 0 38 -1t49.5 -2t48 -1.5t34.5 1.5q4 1 6 2t2 6q0 8 1 21.5t-9 16.5q-67 -2 -133 -3t-133 -1q-6 0 -21.5 0.5t-31.5 0.5q-15 0 -27.5 -1.5t-12.5 -6.5q0 -2 2 -6q20 -33 44 -64.5
t46 -63.5q34 -49 66.5 -98t65.5 -98q-9 -14 -30.5 -46t-49.5 -71.5t-57.5 -82.5t-54.5 -78.5t-41 -59t-16 -24.5q0 -7 7 -7h144q122 0 245 -3q7 2 7 8z" />
    <glyph glyph-name="product" unicode="&#xe005;" horiz-adv-x="698" 
d="M648 670v28l-8 8q-291 -1 -581 0l-8 -8q0 -4 -0.5 -10t0 -12t2.5 -10t7 -4q14 0 27 2.5t27 2.5h31q-2 -166 -5.5 -329.5t-5.5 -329.5l8 -8h27l8 8q2 166 5 329.5t5 329.5h325l10 -659l8 -8h26l8 8q-2 166 -5.5 329.5t-5.5 329.5q22 0 43.5 -0.5t42.5 -4.5z" />
    <glyph glyph-name="approxequal" unicode="&#xe006;" horiz-adv-x="349" 
d="M299 428l-1 10q-2 2 -5.5 5t-5.5 3q-3 0 -7.5 -3.5t-10.5 -7.5t-14.5 -7.5t-20.5 -3.5q-13 0 -27 5t-28 10.5t-29 10.5t-30 5q-8 0 -19.5 -5t-23 -12.5t-19.5 -17t-8 -17.5q0 -2 6 -7.5t8 -5.5q4 0 9 4.5t12 9.5t15.5 9.5t19.5 4.5q14 0 28 -5t28.5 -11t28.5 -11t29 -5
q20 0 37 13t28 29zM299 317l-1 10q-2 1 -5.5 4t-5.5 3q-5 0 -17.5 -10.5t-35.5 -10.5q-14 0 -27.5 4.5t-28 10.5t-29 10.5t-29.5 4.5q-8 0 -19.5 -5t-23 -12.5t-19.5 -17t-8 -17.5q0 -2 6 -7t8 -5q3 0 8.5 4.5t12 9.5t15.5 9.5t20 4.5q13 0 27 -5t28.5 -11t29 -11t29.5 -5
q20 0 37 13t28 29z" />
    <glyph glyph-name="Delta" unicode="&#xe007;" horiz-adv-x="639" 
d="M589 6q0 4 -10 29t-23 56t-25.5 59t-16.5 38q-39 94 -75.5 186.5t-71.5 187.5l-7 5h-58l-6 -5l-246 -557q0 -2 3 -3.5t5 -1.5h523q2 0 5 1.5t3 4.5zM524 42h-408q54 121 106.5 242t106.5 242h5z" />
    </font>
</defs>
</svg>
